<svg xmlns="http://www.w3.org/2000/svg" width="266" height="164" viewBox="0 0 266 164" font-family="-apple-system,Segoe UI,Helvetica,Arial,sans-serif" font-size="9">
<text x="34" y="14" fill="#768390">Apr</text>
<text x="85" y="14" fill="#768390">May</text>
<text x="153" y="14" fill="#768390">Jun</text>
<text x="238" y="14" fill="#768390">Jul</text>
<text x="28" y="33" text-anchor="end" fill="#768390">Mon</text>
<text x="28" y="67" text-anchor="end" fill="#768390">Wed</text>
<text x="28" y="101" text-anchor="end" fill="#768390">Fri</text>
<rect x="34" y="22" width="14" height="14" rx="3" ry="3" fill="#ebedf0"><title>2026-04-13: 0 solves</title></rect>
<rect x="51" y="22" width="14" height="14" rx="3" ry="3" fill="#ebedf0"><title>2026-04-20: 0 solves</title></rect>
<rect x="68" y="22" width="14" height="14" rx="3" ry="3" fill="#ebedf0"><title>2026-04-27: 0 solves</title></rect>
<rect x="85" y="22" width="14" height="14" rx="3" ry="3" fill="#ebedf0"><title>2026-05-04: 0 solves</title></rect>
<rect x="102" y="22" width="14" height="14" rx="3" ry="3" fill="#ebedf0"><title>2026-05-11: 0 solves</title></rect>
<rect x="119" y="22" width="14" height="14" rx="3" ry="3" fill="#ebedf0"><title>2026-05-18: 0 solves</title></rect>
<rect x="136" y="22" width="14" height="14" rx="3" ry="3" fill="#ebedf0"><title>2026-05-25: 0 solves</title></rect>
<rect x="153" y="22" width="14" height="14" rx="3" ry="3" fill="#ebedf0"><title>2026-06-01: 0 solves</title></rect>
<rect x="170" y="22" width="14" height="14" rx="3" ry="3" fill="#ebedf0"><title>2026-06-08: 0 solves</title></rect>
<rect x="187" y="22" width="14" height="14" rx="3" ry="3" fill="#ebedf0"><title>2026-06-15: 0 solves</title></rect>
<rect x="204" y="22" width="14" height="14" rx="3" ry="3" fill="#ebedf0"><title>2026-06-22: 0 solves</title></rect>
<rect x="221" y="22" width="14" height="14" rx="3" ry="3" fill="#40c463"><title>2026-06-29: 2 solves</title></rect>
<rect x="238" y="22" width="14" height="14" rx="3" ry="3" fill="#ebedf0"><title>2026-07-06: 0 solves</title></rect>
<rect x="34" y="39" width="14" height="14" rx="3" ry="3" fill="#ebedf0"><title>2026-04-14: 0 solves</title></rect>
<rect x="51" y="39" width="14" height="14" rx="3" ry="3" fill="#ebedf0"><title>2026-04-21: 0 solves</title></rect>
<rect x="68" y="39" width="14" height="14" rx="3" ry="3" fill="#ebedf0"><title>2026-04-28: 0 solves</title></rect>
<rect x="85" y="39" width="14" height="14" rx="3" ry="3" fill="#ebedf0"><title>2026-05-05: 0 solves</title></rect>
<rect x="102" y="39" width="14" height="14" rx="3" ry="3" fill="#ebedf0"><title>2026-05-12: 0 solves</title></rect>
<rect x="119" y="39" width="14" height="14" rx="3" ry="3" fill="#ebedf0"><title>2026-05-19: 0 solves</title></rect>
<rect x="136" y="39" width="14" height="14" rx="3" ry="3" fill="#ebedf0"><title>2026-05-26: 0 solves</title></rect>
<rect x="153" y="39" width="14" height="14" rx="3" ry="3" fill="#ebedf0"><title>2026-06-02: 0 solves</title></rect>
<rect x="170" y="39" width="14" height="14" rx="3" ry="3" fill="#ebedf0"><title>2026-06-09: 0 solves</title></rect>
<rect x="187" y="39" width="14" height="14" rx="3" ry="3" fill="#216e39"><title>2026-06-16: 10 solves</title></rect>
<rect x="204" y="39" width="14" height="14" rx="3" ry="3" fill="#40c463"><title>2026-06-23: 2 solves</title></rect>
<rect x="221" y="39" width="14" height="14" rx="3" ry="3" fill="#9be9a8"><title>2026-06-30: 1 solve</title></rect>
<rect x="238" y="39" width="14" height="14" rx="3" ry="3" fill="#30a14e"><title>2026-07-07: 3 solves</title></rect>
<rect x="34" y="56" width="14" height="14" rx="3" ry="3" fill="#ebedf0"><title>2026-04-15: 0 solves</title></rect>
<rect x="51" y="56" width="14" height="14" rx="3" ry="3" fill="#ebedf0"><title>2026-04-22: 0 solves</title></rect>
<rect x="68" y="56" width="14" height="14" rx="3" ry="3" fill="#ebedf0"><title>2026-04-29: 0 solves</title></rect>
<rect x="85" y="56" width="14" height="14" rx="3" ry="3" fill="#ebedf0"><title>2026-05-06: 0 solves</title></rect>
<rect x="102" y="56" width="14" height="14" rx="3" ry="3" fill="#ebedf0"><title>2026-05-13: 0 solves</title></rect>
<rect x="119" y="56" width="14" height="14" rx="3" ry="3" fill="#ebedf0"><title>2026-05-20: 0 solves</title></rect>
<rect x="136" y="56" width="14" height="14" rx="3" ry="3" fill="#ebedf0"><title>2026-05-27: 0 solves</title></rect>
<rect x="153" y="56" width="14" height="14" rx="3" ry="3" fill="#ebedf0"><title>2026-06-03: 0 solves</title></rect>
<rect x="170" y="56" width="14" height="14" rx="3" ry="3" fill="#ebedf0"><title>2026-06-10: 0 solves</title></rect>
<rect x="187" y="56" width="14" height="14" rx="3" ry="3" fill="#ebedf0"><title>2026-06-17: 0 solves</title></rect>
<rect x="204" y="56" width="14" height="14" rx="3" ry="3" fill="#ebedf0"><title>2026-06-24: 0 solves</title></rect>
<rect x="221" y="56" width="14" height="14" rx="3" ry="3" fill="#9be9a8"><title>2026-07-01: 1 solve</title></rect>
<rect x="34" y="73" width="14" height="14" rx="3" ry="3" fill="#ebedf0"><title>2026-04-16: 0 solves</title></rect>
<rect x="51" y="73" width="14" height="14" rx="3" ry="3" fill="#ebedf0"><title>2026-04-23: 0 solves</title></rect>
<rect x="68" y="73" width="14" height="14" rx="3" ry="3" fill="#ebedf0"><title>2026-04-30: 0 solves</title></rect>
<rect x="85" y="73" width="14" height="14" rx="3" ry="3" fill="#ebedf0"><title>2026-05-07: 0 solves</title></rect>
<rect x="102" y="73" width="14" height="14" rx="3" ry="3" fill="#ebedf0"><title>2026-05-14: 0 solves</title></rect>
<rect x="119" y="73" width="14" height="14" rx="3" ry="3" fill="#ebedf0"><title>2026-05-21: 0 solves</title></rect>
<rect x="136" y="73" width="14" height="14" rx="3" ry="3" fill="#ebedf0"><title>2026-05-28: 0 solves</title></rect>
<rect x="153" y="73" width="14" height="14" rx="3" ry="3" fill="#ebedf0"><title>2026-06-04: 0 solves</title></rect>
<rect x="170" y="73" width="14" height="14" rx="3" ry="3" fill="#ebedf0"><title>2026-06-11: 0 solves</title></rect>
<rect x="187" y="73" width="14" height="14" rx="3" ry="3" fill="#ebedf0"><title>2026-06-18: 0 solves</title></rect>
<rect x="204" y="73" width="14" height="14" rx="3" ry="3" fill="#216e39"><title>2026-06-25: 10 solves</title></rect>
<rect x="221" y="73" width="14" height="14" rx="3" ry="3" fill="#9be9a8"><title>2026-07-02: 1 solve</title></rect>
<rect x="34" y="90" width="14" height="14" rx="3" ry="3" fill="#ebedf0"><title>2026-04-17: 0 solves</title></rect>
<rect x="51" y="90" width="14" height="14" rx="3" ry="3" fill="#ebedf0"><title>2026-04-24: 0 solves</title></rect>
<rect x="68" y="90" width="14" height="14" rx="3" ry="3" fill="#ebedf0"><title>2026-05-01: 0 solves</title></rect>
<rect x="85" y="90" width="14" height="14" rx="3" ry="3" fill="#ebedf0"><title>2026-05-08: 0 solves</title></rect>
<rect x="102" y="90" width="14" height="14" rx="3" ry="3" fill="#ebedf0"><title>2026-05-15: 0 solves</title></rect>
<rect x="119" y="90" width="14" height="14" rx="3" ry="3" fill="#ebedf0"><title>2026-05-22: 0 solves</title></rect>
<rect x="136" y="90" width="14" height="14" rx="3" ry="3" fill="#ebedf0"><title>2026-05-29: 0 solves</title></rect>
<rect x="153" y="90" width="14" height="14" rx="3" ry="3" fill="#ebedf0"><title>2026-06-05: 0 solves</title></rect>
<rect x="170" y="90" width="14" height="14" rx="3" ry="3" fill="#ebedf0"><title>2026-06-12: 0 solves</title></rect>
<rect x="187" y="90" width="14" height="14" rx="3" ry="3" fill="#40c463"><title>2026-06-19: 2 solves</title></rect>
<rect x="204" y="90" width="14" height="14" rx="3" ry="3" fill="#40c463"><title>2026-06-26: 2 solves</title></rect>
<rect x="221" y="90" width="14" height="14" rx="3" ry="3" fill="#216e39"><title>2026-07-03: 6 solves</title></rect>
<rect x="34" y="107" width="14" height="14" rx="3" ry="3" fill="#ebedf0"><title>2026-04-18: 0 solves</title></rect>
<rect x="51" y="107" width="14" height="14" rx="3" ry="3" fill="#ebedf0"><title>2026-04-25: 0 solves</title></rect>
<rect x="68" y="107" width="14" height="14" rx="3" ry="3" fill="#ebedf0"><title>2026-05-02: 0 solves</title></rect>
<rect x="85" y="107" width="14" height="14" rx="3" ry="3" fill="#ebedf0"><title>2026-05-09: 0 solves</title></rect>
<rect x="102" y="107" width="14" height="14" rx="3" ry="3" fill="#ebedf0"><title>2026-05-16: 0 solves</title></rect>
<rect x="119" y="107" width="14" height="14" rx="3" ry="3" fill="#ebedf0"><title>2026-05-23: 0 solves</title></rect>
<rect x="136" y="107" width="14" height="14" rx="3" ry="3" fill="#ebedf0"><title>2026-05-30: 0 solves</title></rect>
<rect x="153" y="107" width="14" height="14" rx="3" ry="3" fill="#ebedf0"><title>2026-06-06: 0 solves</title></rect>
<rect x="170" y="107" width="14" height="14" rx="3" ry="3" fill="#ebedf0"><title>2026-06-13: 0 solves</title></rect>
<rect x="187" y="107" width="14" height="14" rx="3" ry="3" fill="#216e39"><title>2026-06-20: 5 solves</title></rect>
<rect x="204" y="107" width="14" height="14" rx="3" ry="3" fill="#9be9a8"><title>2026-06-27: 1 solve</title></rect>
<rect x="221" y="107" width="14" height="14" rx="3" ry="3" fill="#216e39"><title>2026-07-04: 4 solves</title></rect>
<rect x="34" y="124" width="14" height="14" rx="3" ry="3" fill="#ebedf0"><title>2026-04-19: 0 solves</title></rect>
<rect x="51" y="124" width="14" height="14" rx="3" ry="3" fill="#ebedf0"><title>2026-04-26: 0 solves</title></rect>
<rect x="68" y="124" width="14" height="14" rx="3" ry="3" fill="#ebedf0"><title>2026-05-03: 0 solves</title></rect>
<rect x="85" y="124" width="14" height="14" rx="3" ry="3" fill="#ebedf0"><title>2026-05-10: 0 solves</title></rect>
<rect x="102" y="124" width="14" height="14" rx="3" ry="3" fill="#ebedf0"><title>2026-05-17: 0 solves</title></rect>
<rect x="119" y="124" width="14" height="14" rx="3" ry="3" fill="#ebedf0"><title>2026-05-24: 0 solves</title></rect>
<rect x="136" y="124" width="14" height="14" rx="3" ry="3" fill="#ebedf0"><title>2026-05-31: 0 solves</title></rect>
<rect x="153" y="124" width="14" height="14" rx="3" ry="3" fill="#ebedf0"><title>2026-06-07: 0 solves</title></rect>
<rect x="170" y="124" width="14" height="14" rx="3" ry="3" fill="#ebedf0"><title>2026-06-14: 0 solves</title></rect>
<rect x="187" y="124" width="14" height="14" rx="3" ry="3" fill="#ebedf0"><title>2026-06-21: 0 solves</title></rect>
<rect x="204" y="124" width="14" height="14" rx="3" ry="3" fill="#40c463"><title>2026-06-28: 2 solves</title></rect>
<rect x="221" y="124" width="14" height="14" rx="3" ry="3" fill="#ebedf0"><title>2026-07-05: 0 solves</title></rect>
<text x="34" y="157" fill="#768390">Less</text>
<rect x="62" y="146" width="14" height="14" rx="3" ry="3" fill="#ebedf0"/>
<rect x="79" y="146" width="14" height="14" rx="3" ry="3" fill="#9be9a8"/>
<rect x="96" y="146" width="14" height="14" rx="3" ry="3" fill="#40c463"/>
<rect x="113" y="146" width="14" height="14" rx="3" ry="3" fill="#30a14e"/>
<rect x="130" y="146" width="14" height="14" rx="3" ry="3" fill="#216e39"/>
<text x="149" y="157" fill="#768390">More</text>
</svg>
