<svg xmlns="http://www.w3.org/2000/svg" width="946" height="164" viewBox="0 0 946 164" font-family="-apple-system,Segoe UI,Helvetica,Arial,sans-serif" font-size="9">
<style>@media (prefers-reduced-motion:no-preference){@keyframes fadein{from{opacity:0}to{opacity:1}}@keyframes slideup{from{opacity:0;transform:translateY(8px)}to{opacity:1;transform:translateY(0)}}@keyframes grow{from{transform:scaleX(0)}to{transform:scaleX(1)}}@keyframes pulse{0%,100%{transform:scale(1);opacity:1}50%{transform:scale(1.18);opacity:.6}}@keyframes spin{to{transform:rotate(360deg)}}.wk{animation:fadein .5s ease-out both}#today{animation:pulse 2.4s ease-in-out infinite;transform-box:fill-box;transform-origin:center}}</style>
<text x="34" y="14" fill="#768390">Jul</text>
<text x="102" y="14" fill="#768390">Aug</text>
<text x="170" y="14" fill="#768390">Sep</text>
<text x="255" y="14" fill="#768390">Oct</text>
<text x="323" y="14" fill="#768390">Nov</text>
<text x="391" y="14" fill="#768390">Dec</text>
<text x="476" y="14" fill="#768390">Jan</text>
<text x="544" y="14" fill="#768390">Feb</text>
<text x="612" y="14" fill="#768390">Mar</text>
<text x="697" y="14" fill="#768390">Apr</text>
<text x="765" y="14" fill="#768390">May</text>
<text x="833" y="14" fill="#768390">Jun</text>
<text x="918" y="14" fill="#768390">Jul</text>
<text x="28" y="33" text-anchor="end" fill="#768390">Mon</text>
<text x="28" y="67" text-anchor="end" fill="#768390">Wed</text>
<text x="28" y="101" text-anchor="end" fill="#768390">Fri</text>
<g class="wk" style="animation-delay:0.000s">
<rect x="34" y="22" width="14" height="14" rx="3" ry="3" fill="#ebedf0"><title>2025-07-07: 0 solves</title></rect>
<rect x="34" y="39" width="14" height="14" rx="3" ry="3" fill="#ebedf0"><title>2025-07-08: 0 solves</title></rect>
<rect x="34" y="56" width="14" height="14" rx="3" ry="3" fill="#ebedf0"><title>2025-07-09: 0 solves</title></rect>
<rect x="34" y="73" width="14" height="14" rx="3" ry="3" fill="#ebedf0"><title>2025-07-10: 0 solves</title></rect>
<rect x="34" y="90" width="14" height="14" rx="3" ry="3" fill="#ebedf0"><title>2025-07-11: 0 solves</title></rect>
<rect x="34" y="107" width="14" height="14" rx="3" ry="3" fill="#ebedf0"><title>2025-07-12: 0 solves</title></rect>
<rect x="34" y="124" width="14" height="14" rx="3" ry="3" fill="#ebedf0"><title>2025-07-13: 0 solves</title></rect>
</g>
<g class="wk" style="animation-delay:0.012s">
<rect x="51" y="22" width="14" height="14" rx="3" ry="3" fill="#ebedf0"><title>2025-07-14: 0 solves</title></rect>
<rect x="51" y="39" width="14" height="14" rx="3" ry="3" fill="#ebedf0"><title>2025-07-15: 0 solves</title></rect>
<rect x="51" y="56" width="14" height="14" rx="3" ry="3" fill="#ebedf0"><title>2025-07-16: 0 solves</title></rect>
<rect x="51" y="73" width="14" height="14" rx="3" ry="3" fill="#ebedf0"><title>2025-07-17: 0 solves</title></rect>
<rect x="51" y="90" width="14" height="14" rx="3" ry="3" fill="#ebedf0"><title>2025-07-18: 0 solves</title></rect>
<rect x="51" y="107" width="14" height="14" rx="3" ry="3" fill="#ebedf0"><title>2025-07-19: 0 solves</title></rect>
<rect x="51" y="124" width="14" height="14" rx="3" ry="3" fill="#ebedf0"><title>2025-07-20: 0 solves</title></rect>
</g>
<g class="wk" style="animation-delay:0.024s">
<rect x="68" y="22" width="14" height="14" rx="3" ry="3" fill="#ebedf0"><title>2025-07-21: 0 solves</title></rect>
<rect x="68" y="39" width="14" height="14" rx="3" ry="3" fill="#ebedf0"><title>2025-07-22: 0 solves</title></rect>
<rect x="68" y="56" width="14" height="14" rx="3" ry="3" fill="#ebedf0"><title>2025-07-23: 0 solves</title></rect>
<rect x="68" y="73" width="14" height="14" rx="3" ry="3" fill="#ebedf0"><title>2025-07-24: 0 solves</title></rect>
<rect x="68" y="90" width="14" height="14" rx="3" ry="3" fill="#ebedf0"><title>2025-07-25: 0 solves</title></rect>
<rect x="68" y="107" width="14" height="14" rx="3" ry="3" fill="#ebedf0"><title>2025-07-26: 0 solves</title></rect>
<rect x="68" y="124" width="14" height="14" rx="3" ry="3" fill="#ebedf0"><title>2025-07-27: 0 solves</title></rect>
</g>
<g class="wk" style="animation-delay:0.036s">
<rect x="85" y="22" width="14" height="14" rx="3" ry="3" fill="#ebedf0"><title>2025-07-28: 0 solves</title></rect>
<rect x="85" y="39" width="14" height="14" rx="3" ry="3" fill="#ebedf0"><title>2025-07-29: 0 solves</title></rect>
<rect x="85" y="56" width="14" height="14" rx="3" ry="3" fill="#ebedf0"><title>2025-07-30: 0 solves</title></rect>
<rect x="85" y="73" width="14" height="14" rx="3" ry="3" fill="#ebedf0"><title>2025-07-31: 0 solves</title></rect>
<rect x="85" y="90" width="14" height="14" rx="3" ry="3" fill="#ebedf0"><title>2025-08-01: 0 solves</title></rect>
<rect x="85" y="107" width="14" height="14" rx="3" ry="3" fill="#ebedf0"><title>2025-08-02: 0 solves</title></rect>
<rect x="85" y="124" width="14" height="14" rx="3" ry="3" fill="#ebedf0"><title>2025-08-03: 0 solves</title></rect>
</g>
<g class="wk" style="animation-delay:0.048s">
<rect x="102" y="22" width="14" height="14" rx="3" ry="3" fill="#ebedf0"><title>2025-08-04: 0 solves</title></rect>
<rect x="102" y="39" width="14" height="14" rx="3" ry="3" fill="#ebedf0"><title>2025-08-05: 0 solves</title></rect>
<rect x="102" y="56" width="14" height="14" rx="3" ry="3" fill="#ebedf0"><title>2025-08-06: 0 solves</title></rect>
<rect x="102" y="73" width="14" height="14" rx="3" ry="3" fill="#ebedf0"><title>2025-08-07: 0 solves</title></rect>
<rect x="102" y="90" width="14" height="14" rx="3" ry="3" fill="#ebedf0"><title>2025-08-08: 0 solves</title></rect>
<rect x="102" y="107" width="14" height="14" rx="3" ry="3" fill="#ebedf0"><title>2025-08-09: 0 solves</title></rect>
<rect x="102" y="124" width="14" height="14" rx="3" ry="3" fill="#ebedf0"><title>2025-08-10: 0 solves</title></rect>
</g>
<g class="wk" style="animation-delay:0.060s">
<rect x="119" y="22" width="14" height="14" rx="3" ry="3" fill="#ebedf0"><title>2025-08-11: 0 solves</title></rect>
<rect x="119" y="39" width="14" height="14" rx="3" ry="3" fill="#ebedf0"><title>2025-08-12: 0 solves</title></rect>
<rect x="119" y="56" width="14" height="14" rx="3" ry="3" fill="#ebedf0"><title>2025-08-13: 0 solves</title></rect>
<rect x="119" y="73" width="14" height="14" rx="3" ry="3" fill="#ebedf0"><title>2025-08-14: 0 solves</title></rect>
<rect x="119" y="90" width="14" height="14" rx="3" ry="3" fill="#ebedf0"><title>2025-08-15: 0 solves</title></rect>
<rect x="119" y="107" width="14" height="14" rx="3" ry="3" fill="#ebedf0"><title>2025-08-16: 0 solves</title></rect>
<rect x="119" y="124" width="14" height="14" rx="3" ry="3" fill="#ebedf0"><title>2025-08-17: 0 solves</title></rect>
</g>
<g class="wk" style="animation-delay:0.072s">
<rect x="136" y="22" width="14" height="14" rx="3" ry="3" fill="#ebedf0"><title>2025-08-18: 0 solves</title></rect>
<rect x="136" y="39" width="14" height="14" rx="3" ry="3" fill="#ebedf0"><title>2025-08-19: 0 solves</title></rect>
<rect x="136" y="56" width="14" height="14" rx="3" ry="3" fill="#ebedf0"><title>2025-08-20: 0 solves</title></rect>
<rect x="136" y="73" width="14" height="14" rx="3" ry="3" fill="#ebedf0"><title>2025-08-21: 0 solves</title></rect>
<rect x="136" y="90" width="14" height="14" rx="3" ry="3" fill="#ebedf0"><title>2025-08-22: 0 solves</title></rect>
<rect x="136" y="107" width="14" height="14" rx="3" ry="3" fill="#ebedf0"><title>2025-08-23: 0 solves</title></rect>
<rect x="136" y="124" width="14" height="14" rx="3" ry="3" fill="#ebedf0"><title>2025-08-24: 0 solves</title></rect>
</g>
<g class="wk" style="animation-delay:0.084s">
<rect x="153" y="22" width="14" height="14" rx="3" ry="3" fill="#ebedf0"><title>2025-08-25: 0 solves</title></rect>
<rect x="153" y="39" width="14" height="14" rx="3" ry="3" fill="#ebedf0"><title>2025-08-26: 0 solves</title></rect>
<rect x="153" y="56" width="14" height="14" rx="3" ry="3" fill="#ebedf0"><title>2025-08-27: 0 solves</title></rect>
<rect x="153" y="73" width="14" height="14" rx="3" ry="3" fill="#ebedf0"><title>2025-08-28: 0 solves</title></rect>
<rect x="153" y="90" width="14" height="14" rx="3" ry="3" fill="#ebedf0"><title>2025-08-29: 0 solves</title></rect>
<rect x="153" y="107" width="14" height="14" rx="3" ry="3" fill="#ebedf0"><title>2025-08-30: 0 solves</title></rect>
<rect x="153" y="124" width="14" height="14" rx="3" ry="3" fill="#ebedf0"><title>2025-08-31: 0 solves</title></rect>
</g>
<g class="wk" style="animation-delay:0.096s">
<rect x="170" y="22" width="14" height="14" rx="3" ry="3" fill="#ebedf0"><title>2025-09-01: 0 solves</title></rect>
<rect x="170" y="39" width="14" height="14" rx="3" ry="3" fill="#ebedf0"><title>2025-09-02: 0 solves</title></rect>
<rect x="170" y="56" width="14" height="14" rx="3" ry="3" fill="#ebedf0"><title>2025-09-03: 0 solves</title></rect>
<rect x="170" y="73" width="14" height="14" rx="3" ry="3" fill="#ebedf0"><title>2025-09-04: 0 solves</title></rect>
<rect x="170" y="90" width="14" height="14" rx="3" ry="3" fill="#ebedf0"><title>2025-09-05: 0 solves</title></rect>
<rect x="170" y="107" width="14" height="14" rx="3" ry="3" fill="#ebedf0"><title>2025-09-06: 0 solves</title></rect>
<rect x="170" y="124" width="14" height="14" rx="3" ry="3" fill="#ebedf0"><title>2025-09-07: 0 solves</title></rect>
</g>
<g class="wk" style="animation-delay:0.108s">
<rect x="187" y="22" width="14" height="14" rx="3" ry="3" fill="#ebedf0"><title>2025-09-08: 0 solves</title></rect>
<rect x="187" y="39" width="14" height="14" rx="3" ry="3" fill="#ebedf0"><title>2025-09-09: 0 solves</title></rect>
<rect x="187" y="56" width="14" height="14" rx="3" ry="3" fill="#ebedf0"><title>2025-09-10: 0 solves</title></rect>
<rect x="187" y="73" width="14" height="14" rx="3" ry="3" fill="#ebedf0"><title>2025-09-11: 0 solves</title></rect>
<rect x="187" y="90" width="14" height="14" rx="3" ry="3" fill="#ebedf0"><title>2025-09-12: 0 solves</title></rect>
<rect x="187" y="107" width="14" height="14" rx="3" ry="3" fill="#ebedf0"><title>2025-09-13: 0 solves</title></rect>
<rect x="187" y="124" width="14" height="14" rx="3" ry="3" fill="#ebedf0"><title>2025-09-14: 0 solves</title></rect>
</g>
<g class="wk" style="animation-delay:0.120s">
<rect x="204" y="22" width="14" height="14" rx="3" ry="3" fill="#ebedf0"><title>2025-09-15: 0 solves</title></rect>
<rect x="204" y="39" width="14" height="14" rx="3" ry="3" fill="#ebedf0"><title>2025-09-16: 0 solves</title></rect>
<rect x="204" y="56" width="14" height="14" rx="3" ry="3" fill="#ebedf0"><title>2025-09-17: 0 solves</title></rect>
<rect x="204" y="73" width="14" height="14" rx="3" ry="3" fill="#ebedf0"><title>2025-09-18: 0 solves</title></rect>
<rect x="204" y="90" width="14" height="14" rx="3" ry="3" fill="#ebedf0"><title>2025-09-19: 0 solves</title></rect>
<rect x="204" y="107" width="14" height="14" rx="3" ry="3" fill="#ebedf0"><title>2025-09-20: 0 solves</title></rect>
<rect x="204" y="124" width="14" height="14" rx="3" ry="3" fill="#ebedf0"><title>2025-09-21: 0 solves</title></rect>
</g>
<g class="wk" style="animation-delay:0.132s">
<rect x="221" y="22" width="14" height="14" rx="3" ry="3" fill="#ebedf0"><title>2025-09-22: 0 solves</title></rect>
<rect x="221" y="39" width="14" height="14" rx="3" ry="3" fill="#ebedf0"><title>2025-09-23: 0 solves</title></rect>
<rect x="221" y="56" width="14" height="14" rx="3" ry="3" fill="#ebedf0"><title>2025-09-24: 0 solves</title></rect>
<rect x="221" y="73" width="14" height="14" rx="3" ry="3" fill="#ebedf0"><title>2025-09-25: 0 solves</title></rect>
<rect x="221" y="90" width="14" height="14" rx="3" ry="3" fill="#ebedf0"><title>2025-09-26: 0 solves</title></rect>
<rect x="221" y="107" width="14" height="14" rx="3" ry="3" fill="#ebedf0"><title>2025-09-27: 0 solves</title></rect>
<rect x="221" y="124" width="14" height="14" rx="3" ry="3" fill="#ebedf0"><title>2025-09-28: 0 solves</title></rect>
</g>
<g class="wk" style="animation-delay:0.144s">
<rect x="238" y="22" width="14" height="14" rx="3" ry="3" fill="#ebedf0"><title>2025-09-29: 0 solves</title></rect>
<rect x="238" y="39" width="14" height="14" rx="3" ry="3" fill="#ebedf0"><title>2025-09-30: 0 solves</title></rect>
<rect x="238" y="56" width="14" height="14" rx="3" ry="3" fill="#ebedf0"><title>2025-10-01: 0 solves</title></rect>
<rect x="238" y="73" width="14" height="14" rx="3" ry="3" fill="#ebedf0"><title>2025-10-02: 0 solves</title></rect>
<rect x="238" y="90" width="14" height="14" rx="3" ry="3" fill="#ebedf0"><title>2025-10-03: 0 solves</title></rect>
<rect x="238" y="107" width="14" height="14" rx="3" ry="3" fill="#ebedf0"><title>2025-10-04: 0 solves</title></rect>
<rect x="238" y="124" width="14" height="14" rx="3" ry="3" fill="#ebedf0"><title>2025-10-05: 0 solves</title></rect>
</g>
<g class="wk" style="animation-delay:0.156s">
<rect x="255" y="22" width="14" height="14" rx="3" ry="3" fill="#ebedf0"><title>2025-10-06: 0 solves</title></rect>
<rect x="255" y="39" width="14" height="14" rx="3" ry="3" fill="#ebedf0"><title>2025-10-07: 0 solves</title></rect>
<rect x="255" y="56" width="14" height="14" rx="3" ry="3" fill="#ebedf0"><title>2025-10-08: 0 solves</title></rect>
<rect x="255" y="73" width="14" height="14" rx="3" ry="3" fill="#ebedf0"><title>2025-10-09: 0 solves</title></rect>
<rect x="255" y="90" width="14" height="14" rx="3" ry="3" fill="#ebedf0"><title>2025-10-10: 0 solves</title></rect>
<rect x="255" y="107" width="14" height="14" rx="3" ry="3" fill="#ebedf0"><title>2025-10-11: 0 solves</title></rect>
<rect x="255" y="124" width="14" height="14" rx="3" ry="3" fill="#ebedf0"><title>2025-10-12: 0 solves</title></rect>
</g>
<g class="wk" style="animation-delay:0.168s">
<rect x="272" y="22" width="14" height="14" rx="3" ry="3" fill="#ebedf0"><title>2025-10-13: 0 solves</title></rect>
<rect x="272" y="39" width="14" height="14" rx="3" ry="3" fill="#ebedf0"><title>2025-10-14: 0 solves</title></rect>
<rect x="272" y="56" width="14" height="14" rx="3" ry="3" fill="#ebedf0"><title>2025-10-15: 0 solves</title></rect>
<rect x="272" y="73" width="14" height="14" rx="3" ry="3" fill="#ebedf0"><title>2025-10-16: 0 solves</title></rect>
<rect x="272" y="90" width="14" height="14" rx="3" ry="3" fill="#ebedf0"><title>2025-10-17: 0 solves</title></rect>
<rect x="272" y="107" width="14" height="14" rx="3" ry="3" fill="#ebedf0"><title>2025-10-18: 0 solves</title></rect>
<rect x="272" y="124" width="14" height="14" rx="3" ry="3" fill="#ebedf0"><title>2025-10-19: 0 solves</title></rect>
</g>
<g class="wk" style="animation-delay:0.180s">
<rect x="289" y="22" width="14" height="14" rx="3" ry="3" fill="#ebedf0"><title>2025-10-20: 0 solves</title></rect>
<rect x="289" y="39" width="14" height="14" rx="3" ry="3" fill="#ebedf0"><title>2025-10-21: 0 solves</title></rect>
<rect x="289" y="56" width="14" height="14" rx="3" ry="3" fill="#ebedf0"><title>2025-10-22: 0 solves</title></rect>
<rect x="289" y="73" width="14" height="14" rx="3" ry="3" fill="#ebedf0"><title>2025-10-23: 0 solves</title></rect>
<rect x="289" y="90" width="14" height="14" rx="3" ry="3" fill="#ebedf0"><title>2025-10-24: 0 solves</title></rect>
<rect x="289" y="107" width="14" height="14" rx="3" ry="3" fill="#ebedf0"><title>2025-10-25: 0 solves</title></rect>
<rect x="289" y="124" width="14" height="14" rx="3" ry="3" fill="#ebedf0"><title>2025-10-26: 0 solves</title></rect>
</g>
<g class="wk" style="animation-delay:0.192s">
<rect x="306" y="22" width="14" height="14" rx="3" ry="3" fill="#ebedf0"><title>2025-10-27: 0 solves</title></rect>
<rect x="306" y="39" width="14" height="14" rx="3" ry="3" fill="#ebedf0"><title>2025-10-28: 0 solves</title></rect>
<rect x="306" y="56" width="14" height="14" rx="3" ry="3" fill="#ebedf0"><title>2025-10-29: 0 solves</title></rect>
<rect x="306" y="73" width="14" height="14" rx="3" ry="3" fill="#ebedf0"><title>2025-10-30: 0 solves</title></rect>
<rect x="306" y="90" width="14" height="14" rx="3" ry="3" fill="#ebedf0"><title>2025-10-31: 0 solves</title></rect>
<rect x="306" y="107" width="14" height="14" rx="3" ry="3" fill="#ebedf0"><title>2025-11-01: 0 solves</title></rect>
<rect x="306" y="124" width="14" height="14" rx="3" ry="3" fill="#ebedf0"><title>2025-11-02: 0 solves</title></rect>
</g>
<g class="wk" style="animation-delay:0.204s">
<rect x="323" y="22" width="14" height="14" rx="3" ry="3" fill="#ebedf0"><title>2025-11-03: 0 solves</title></rect>
<rect x="323" y="39" width="14" height="14" rx="3" ry="3" fill="#ebedf0"><title>2025-11-04: 0 solves</title></rect>
<rect x="323" y="56" width="14" height="14" rx="3" ry="3" fill="#ebedf0"><title>2025-11-05: 0 solves</title></rect>
<rect x="323" y="73" width="14" height="14" rx="3" ry="3" fill="#ebedf0"><title>2025-11-06: 0 solves</title></rect>
<rect x="323" y="90" width="14" height="14" rx="3" ry="3" fill="#ebedf0"><title>2025-11-07: 0 solves</title></rect>
<rect x="323" y="107" width="14" height="14" rx="3" ry="3" fill="#ebedf0"><title>2025-11-08: 0 solves</title></rect>
<rect x="323" y="124" width="14" height="14" rx="3" ry="3" fill="#ebedf0"><title>2025-11-09: 0 solves</title></rect>
</g>
<g class="wk" style="animation-delay:0.216s">
<rect x="340" y="22" width="14" height="14" rx="3" ry="3" fill="#ebedf0"><title>2025-11-10: 0 solves</title></rect>
<rect x="340" y="39" width="14" height="14" rx="3" ry="3" fill="#ebedf0"><title>2025-11-11: 0 solves</title></rect>
<rect x="340" y="56" width="14" height="14" rx="3" ry="3" fill="#ebedf0"><title>2025-11-12: 0 solves</title></rect>
<rect x="340" y="73" width="14" height="14" rx="3" ry="3" fill="#ebedf0"><title>2025-11-13: 0 solves</title></rect>
<rect x="340" y="90" width="14" height="14" rx="3" ry="3" fill="#ebedf0"><title>2025-11-14: 0 solves</title></rect>
<rect x="340" y="107" width="14" height="14" rx="3" ry="3" fill="#ebedf0"><title>2025-11-15: 0 solves</title></rect>
<rect x="340" y="124" width="14" height="14" rx="3" ry="3" fill="#ebedf0"><title>2025-11-16: 0 solves</title></rect>
</g>
<g class="wk" style="animation-delay:0.228s">
<rect x="357" y="22" width="14" height="14" rx="3" ry="3" fill="#ebedf0"><title>2025-11-17: 0 solves</title></rect>
<rect x="357" y="39" width="14" height="14" rx="3" ry="3" fill="#ebedf0"><title>2025-11-18: 0 solves</title></rect>
<rect x="357" y="56" width="14" height="14" rx="3" ry="3" fill="#ebedf0"><title>2025-11-19: 0 solves</title></rect>
<rect x="357" y="73" width="14" height="14" rx="3" ry="3" fill="#ebedf0"><title>2025-11-20: 0 solves</title></rect>
<rect x="357" y="90" width="14" height="14" rx="3" ry="3" fill="#ebedf0"><title>2025-11-21: 0 solves</title></rect>
<rect x="357" y="107" width="14" height="14" rx="3" ry="3" fill="#ebedf0"><title>2025-11-22: 0 solves</title></rect>
<rect x="357" y="124" width="14" height="14" rx="3" ry="3" fill="#ebedf0"><title>2025-11-23: 0 solves</title></rect>
</g>
<g class="wk" style="animation-delay:0.240s">
<rect x="374" y="22" width="14" height="14" rx="3" ry="3" fill="#ebedf0"><title>2025-11-24: 0 solves</title></rect>
<rect x="374" y="39" width="14" height="14" rx="3" ry="3" fill="#ebedf0"><title>2025-11-25: 0 solves</title></rect>
<rect x="374" y="56" width="14" height="14" rx="3" ry="3" fill="#ebedf0"><title>2025-11-26: 0 solves</title></rect>
<rect x="374" y="73" width="14" height="14" rx="3" ry="3" fill="#ebedf0"><title>2025-11-27: 0 solves</title></rect>
<rect x="374" y="90" width="14" height="14" rx="3" ry="3" fill="#ebedf0"><title>2025-11-28: 0 solves</title></rect>
<rect x="374" y="107" width="14" height="14" rx="3" ry="3" fill="#ebedf0"><title>2025-11-29: 0 solves</title></rect>
<rect x="374" y="124" width="14" height="14" rx="3" ry="3" fill="#ebedf0"><title>2025-11-30: 0 solves</title></rect>
</g>
<g class="wk" style="animation-delay:0.252s">
<rect x="391" y="22" width="14" height="14" rx="3" ry="3" fill="#ebedf0"><title>2025-12-01: 0 solves</title></rect>
<rect x="391" y="39" width="14" height="14" rx="3" ry="3" fill="#ebedf0"><title>2025-12-02: 0 solves</title></rect>
<rect x="391" y="56" width="14" height="14" rx="3" ry="3" fill="#ebedf0"><title>2025-12-03: 0 solves</title></rect>
<rect x="391" y="73" width="14" height="14" rx="3" ry="3" fill="#ebedf0"><title>2025-12-04: 0 solves</title></rect>
<rect x="391" y="90" width="14" height="14" rx="3" ry="3" fill="#ebedf0"><title>2025-12-05: 0 solves</title></rect>
<rect x="391" y="107" width="14" height="14" rx="3" ry="3" fill="#ebedf0"><title>2025-12-06: 0 solves</title></rect>
<rect x="391" y="124" width="14" height="14" rx="3" ry="3" fill="#ebedf0"><title>2025-12-07: 0 solves</title></rect>
</g>
<g class="wk" style="animation-delay:0.264s">
<rect x="408" y="22" width="14" height="14" rx="3" ry="3" fill="#ebedf0"><title>2025-12-08: 0 solves</title></rect>
<rect x="408" y="39" width="14" height="14" rx="3" ry="3" fill="#ebedf0"><title>2025-12-09: 0 solves</title></rect>
<rect x="408" y="56" width="14" height="14" rx="3" ry="3" fill="#ebedf0"><title>2025-12-10: 0 solves</title></rect>
<rect x="408" y="73" width="14" height="14" rx="3" ry="3" fill="#ebedf0"><title>2025-12-11: 0 solves</title></rect>
<rect x="408" y="90" width="14" height="14" rx="3" ry="3" fill="#ebedf0"><title>2025-12-12: 0 solves</title></rect>
<rect x="408" y="107" width="14" height="14" rx="3" ry="3" fill="#ebedf0"><title>2025-12-13: 0 solves</title></rect>
<rect x="408" y="124" width="14" height="14" rx="3" ry="3" fill="#ebedf0"><title>2025-12-14: 0 solves</title></rect>
</g>
<g class="wk" style="animation-delay:0.276s">
<rect x="425" y="22" width="14" height="14" rx="3" ry="3" fill="#ebedf0"><title>2025-12-15: 0 solves</title></rect>
<rect x="425" y="39" width="14" height="14" rx="3" ry="3" fill="#ebedf0"><title>2025-12-16: 0 solves</title></rect>
<rect x="425" y="56" width="14" height="14" rx="3" ry="3" fill="#ebedf0"><title>2025-12-17: 0 solves</title></rect>
<rect x="425" y="73" width="14" height="14" rx="3" ry="3" fill="#ebedf0"><title>2025-12-18: 0 solves</title></rect>
<rect x="425" y="90" width="14" height="14" rx="3" ry="3" fill="#ebedf0"><title>2025-12-19: 0 solves</title></rect>
<rect x="425" y="107" width="14" height="14" rx="3" ry="3" fill="#ebedf0"><title>2025-12-20: 0 solves</title></rect>
<rect x="425" y="124" width="14" height="14" rx="3" ry="3" fill="#ebedf0"><title>2025-12-21: 0 solves</title></rect>
</g>
<g class="wk" style="animation-delay:0.288s">
<rect x="442" y="22" width="14" height="14" rx="3" ry="3" fill="#ebedf0"><title>2025-12-22: 0 solves</title></rect>
<rect x="442" y="39" width="14" height="14" rx="3" ry="3" fill="#ebedf0"><title>2025-12-23: 0 solves</title></rect>
<rect x="442" y="56" width="14" height="14" rx="3" ry="3" fill="#ebedf0"><title>2025-12-24: 0 solves</title></rect>
<rect x="442" y="73" width="14" height="14" rx="3" ry="3" fill="#ebedf0"><title>2025-12-25: 0 solves</title></rect>
<rect x="442" y="90" width="14" height="14" rx="3" ry="3" fill="#ebedf0"><title>2025-12-26: 0 solves</title></rect>
<rect x="442" y="107" width="14" height="14" rx="3" ry="3" fill="#ebedf0"><title>2025-12-27: 0 solves</title></rect>
<rect x="442" y="124" width="14" height="14" rx="3" ry="3" fill="#ebedf0"><title>2025-12-28: 0 solves</title></rect>
</g>
<g class="wk" style="animation-delay:0.300s">
<rect x="459" y="22" width="14" height="14" rx="3" ry="3" fill="#ebedf0"><title>2025-12-29: 0 solves</title></rect>
<rect x="459" y="39" width="14" height="14" rx="3" ry="3" fill="#ebedf0"><title>2025-12-30: 0 solves</title></rect>
<rect x="459" y="56" width="14" height="14" rx="3" ry="3" fill="#ebedf0"><title>2025-12-31: 0 solves</title></rect>
<rect x="459" y="73" width="14" height="14" rx="3" ry="3" fill="#ebedf0"><title>2026-01-01: 0 solves</title></rect>
<rect x="459" y="90" width="14" height="14" rx="3" ry="3" fill="#ebedf0"><title>2026-01-02: 0 solves</title></rect>
<rect x="459" y="107" width="14" height="14" rx="3" ry="3" fill="#ebedf0"><title>2026-01-03: 0 solves</title></rect>
<rect x="459" y="124" width="14" height="14" rx="3" ry="3" fill="#ebedf0"><title>2026-01-04: 0 solves</title></rect>
</g>
<g class="wk" style="animation-delay:0.312s">
<rect x="476" y="22" width="14" height="14" rx="3" ry="3" fill="#ebedf0"><title>2026-01-05: 0 solves</title></rect>
<rect x="476" y="39" width="14" height="14" rx="3" ry="3" fill="#ebedf0"><title>2026-01-06: 0 solves</title></rect>
<rect x="476" y="56" width="14" height="14" rx="3" ry="3" fill="#ebedf0"><title>2026-01-07: 0 solves</title></rect>
<rect x="476" y="73" width="14" height="14" rx="3" ry="3" fill="#ebedf0"><title>2026-01-08: 0 solves</title></rect>
<rect x="476" y="90" width="14" height="14" rx="3" ry="3" fill="#ebedf0"><title>2026-01-09: 0 solves</title></rect>
<rect x="476" y="107" width="14" height="14" rx="3" ry="3" fill="#ebedf0"><title>2026-01-10: 0 solves</title></rect>
<rect x="476" y="124" width="14" height="14" rx="3" ry="3" fill="#ebedf0"><title>2026-01-11: 0 solves</title></rect>
</g>
<g class="wk" style="animation-delay:0.324s">
<rect x="493" y="22" width="14" height="14" rx="3" ry="3" fill="#ebedf0"><title>2026-01-12: 0 solves</title></rect>
<rect x="493" y="39" width="14" height="14" rx="3" ry="3" fill="#ebedf0"><title>2026-01-13: 0 solves</title></rect>
<rect x="493" y="56" width="14" height="14" rx="3" ry="3" fill="#ebedf0"><title>2026-01-14: 0 solves</title></rect>
<rect x="493" y="73" width="14" height="14" rx="3" ry="3" fill="#ebedf0"><title>2026-01-15: 0 solves</title></rect>
<rect x="493" y="90" width="14" height="14" rx="3" ry="3" fill="#ebedf0"><title>2026-01-16: 0 solves</title></rect>
<rect x="493" y="107" width="14" height="14" rx="3" ry="3" fill="#ebedf0"><title>2026-01-17: 0 solves</title></rect>
<rect x="493" y="124" width="14" height="14" rx="3" ry="3" fill="#ebedf0"><title>2026-01-18: 0 solves</title></rect>
</g>
<g class="wk" style="animation-delay:0.336s">
<rect x="510" y="22" width="14" height="14" rx="3" ry="3" fill="#ebedf0"><title>2026-01-19: 0 solves</title></rect>
<rect x="510" y="39" width="14" height="14" rx="3" ry="3" fill="#ebedf0"><title>2026-01-20: 0 solves</title></rect>
<rect x="510" y="56" width="14" height="14" rx="3" ry="3" fill="#ebedf0"><title>2026-01-21: 0 solves</title></rect>
<rect x="510" y="73" width="14" height="14" rx="3" ry="3" fill="#ebedf0"><title>2026-01-22: 0 solves</title></rect>
<rect x="510" y="90" width="14" height="14" rx="3" ry="3" fill="#ebedf0"><title>2026-01-23: 0 solves</title></rect>
<rect x="510" y="107" width="14" height="14" rx="3" ry="3" fill="#ebedf0"><title>2026-01-24: 0 solves</title></rect>
<rect x="510" y="124" width="14" height="14" rx="3" ry="3" fill="#ebedf0"><title>2026-01-25: 0 solves</title></rect>
</g>
<g class="wk" style="animation-delay:0.348s">
<rect x="527" y="22" width="14" height="14" rx="3" ry="3" fill="#ebedf0"><title>2026-01-26: 0 solves</title></rect>
<rect x="527" y="39" width="14" height="14" rx="3" ry="3" fill="#ebedf0"><title>2026-01-27: 0 solves</title></rect>
<rect x="527" y="56" width="14" height="14" rx="3" ry="3" fill="#ebedf0"><title>2026-01-28: 0 solves</title></rect>
<rect x="527" y="73" width="14" height="14" rx="3" ry="3" fill="#ebedf0"><title>2026-01-29: 0 solves</title></rect>
<rect x="527" y="90" width="14" height="14" rx="3" ry="3" fill="#ebedf0"><title>2026-01-30: 0 solves</title></rect>
<rect x="527" y="107" width="14" height="14" rx="3" ry="3" fill="#ebedf0"><title>2026-01-31: 0 solves</title></rect>
<rect x="527" y="124" width="14" height="14" rx="3" ry="3" fill="#ebedf0"><title>2026-02-01: 0 solves</title></rect>
</g>
<g class="wk" style="animation-delay:0.360s">
<rect x="544" y="22" width="14" height="14" rx="3" ry="3" fill="#ebedf0"><title>2026-02-02: 0 solves</title></rect>
<rect x="544" y="39" width="14" height="14" rx="3" ry="3" fill="#ebedf0"><title>2026-02-03: 0 solves</title></rect>
<rect x="544" y="56" width="14" height="14" rx="3" ry="3" fill="#ebedf0"><title>2026-02-04: 0 solves</title></rect>
<rect x="544" y="73" width="14" height="14" rx="3" ry="3" fill="#ebedf0"><title>2026-02-05: 0 solves</title></rect>
<rect x="544" y="90" width="14" height="14" rx="3" ry="3" fill="#ebedf0"><title>2026-02-06: 0 solves</title></rect>
<rect x="544" y="107" width="14" height="14" rx="3" ry="3" fill="#ebedf0"><title>2026-02-07: 0 solves</title></rect>
<rect x="544" y="124" width="14" height="14" rx="3" ry="3" fill="#ebedf0"><title>2026-02-08: 0 solves</title></rect>
</g>
<g class="wk" style="animation-delay:0.372s">
<rect x="561" y="22" width="14" height="14" rx="3" ry="3" fill="#ebedf0"><title>2026-02-09: 0 solves</title></rect>
<rect x="561" y="39" width="14" height="14" rx="3" ry="3" fill="#ebedf0"><title>2026-02-10: 0 solves</title></rect>
<rect x="561" y="56" width="14" height="14" rx="3" ry="3" fill="#ebedf0"><title>2026-02-11: 0 solves</title></rect>
<rect x="561" y="73" width="14" height="14" rx="3" ry="3" fill="#ebedf0"><title>2026-02-12: 0 solves</title></rect>
<rect x="561" y="90" width="14" height="14" rx="3" ry="3" fill="#ebedf0"><title>2026-02-13: 0 solves</title></rect>
<rect x="561" y="107" width="14" height="14" rx="3" ry="3" fill="#ebedf0"><title>2026-02-14: 0 solves</title></rect>
<rect x="561" y="124" width="14" height="14" rx="3" ry="3" fill="#ebedf0"><title>2026-02-15: 0 solves</title></rect>
</g>
<g class="wk" style="animation-delay:0.384s">
<rect x="578" y="22" width="14" height="14" rx="3" ry="3" fill="#ebedf0"><title>2026-02-16: 0 solves</title></rect>
<rect x="578" y="39" width="14" height="14" rx="3" ry="3" fill="#ebedf0"><title>2026-02-17: 0 solves</title></rect>
<rect x="578" y="56" width="14" height="14" rx="3" ry="3" fill="#ebedf0"><title>2026-02-18: 0 solves</title></rect>
<rect x="578" y="73" width="14" height="14" rx="3" ry="3" fill="#ebedf0"><title>2026-02-19: 0 solves</title></rect>
<rect x="578" y="90" width="14" height="14" rx="3" ry="3" fill="#ebedf0"><title>2026-02-20: 0 solves</title></rect>
<rect x="578" y="107" width="14" height="14" rx="3" ry="3" fill="#ebedf0"><title>2026-02-21: 0 solves</title></rect>
<rect x="578" y="124" width="14" height="14" rx="3" ry="3" fill="#ebedf0"><title>2026-02-22: 0 solves</title></rect>
</g>
<g class="wk" style="animation-delay:0.396s">
<rect x="595" y="22" width="14" height="14" rx="3" ry="3" fill="#ebedf0"><title>2026-02-23: 0 solves</title></rect>
<rect x="595" y="39" width="14" height="14" rx="3" ry="3" fill="#ebedf0"><title>2026-02-24: 0 solves</title></rect>
<rect x="595" y="56" width="14" height="14" rx="3" ry="3" fill="#ebedf0"><title>2026-02-25: 0 solves</title></rect>
<rect x="595" y="73" width="14" height="14" rx="3" ry="3" fill="#ebedf0"><title>2026-02-26: 0 solves</title></rect>
<rect x="595" y="90" width="14" height="14" rx="3" ry="3" fill="#ebedf0"><title>2026-02-27: 0 solves</title></rect>
<rect x="595" y="107" width="14" height="14" rx="3" ry="3" fill="#ebedf0"><title>2026-02-28: 0 solves</title></rect>
<rect x="595" y="124" width="14" height="14" rx="3" ry="3" fill="#ebedf0"><title>2026-03-01: 0 solves</title></rect>
</g>
<g class="wk" style="animation-delay:0.408s">
<rect x="612" y="22" width="14" height="14" rx="3" ry="3" fill="#ebedf0"><title>2026-03-02: 0 solves</title></rect>
<rect x="612" y="39" width="14" height="14" rx="3" ry="3" fill="#ebedf0"><title>2026-03-03: 0 solves</title></rect>
<rect x="612" y="56" width="14" height="14" rx="3" ry="3" fill="#ebedf0"><title>2026-03-04: 0 solves</title></rect>
<rect x="612" y="73" width="14" height="14" rx="3" ry="3" fill="#ebedf0"><title>2026-03-05: 0 solves</title></rect>
<rect x="612" y="90" width="14" height="14" rx="3" ry="3" fill="#ebedf0"><title>2026-03-06: 0 solves</title></rect>
<rect x="612" y="107" width="14" height="14" rx="3" ry="3" fill="#ebedf0"><title>2026-03-07: 0 solves</title></rect>
<rect x="612" y="124" width="14" height="14" rx="3" ry="3" fill="#ebedf0"><title>2026-03-08: 0 solves</title></rect>
</g>
<g class="wk" style="animation-delay:0.420s">
<rect x="629" y="22" width="14" height="14" rx="3" ry="3" fill="#ebedf0"><title>2026-03-09: 0 solves</title></rect>
<rect x="629" y="39" width="14" height="14" rx="3" ry="3" fill="#ebedf0"><title>2026-03-10: 0 solves</title></rect>
<rect x="629" y="56" width="14" height="14" rx="3" ry="3" fill="#ebedf0"><title>2026-03-11: 0 solves</title></rect>
<rect x="629" y="73" width="14" height="14" rx="3" ry="3" fill="#ebedf0"><title>2026-03-12: 0 solves</title></rect>
<rect x="629" y="90" width="14" height="14" rx="3" ry="3" fill="#ebedf0"><title>2026-03-13: 0 solves</title></rect>
<rect x="629" y="107" width="14" height="14" rx="3" ry="3" fill="#ebedf0"><title>2026-03-14: 0 solves</title></rect>
<rect x="629" y="124" width="14" height="14" rx="3" ry="3" fill="#ebedf0"><title>2026-03-15: 0 solves</title></rect>
</g>
<g class="wk" style="animation-delay:0.432s">
<rect x="646" y="22" width="14" height="14" rx="3" ry="3" fill="#ebedf0"><title>2026-03-16: 0 solves</title></rect>
<rect x="646" y="39" width="14" height="14" rx="3" ry="3" fill="#ebedf0"><title>2026-03-17: 0 solves</title></rect>
<rect x="646" y="56" width="14" height="14" rx="3" ry="3" fill="#ebedf0"><title>2026-03-18: 0 solves</title></rect>
<rect x="646" y="73" width="14" height="14" rx="3" ry="3" fill="#ebedf0"><title>2026-03-19: 0 solves</title></rect>
<rect x="646" y="90" width="14" height="14" rx="3" ry="3" fill="#ebedf0"><title>2026-03-20: 0 solves</title></rect>
<rect x="646" y="107" width="14" height="14" rx="3" ry="3" fill="#ebedf0"><title>2026-03-21: 0 solves</title></rect>
<rect x="646" y="124" width="14" height="14" rx="3" ry="3" fill="#ebedf0"><title>2026-03-22: 0 solves</title></rect>
</g>
<g class="wk" style="animation-delay:0.444s">
<rect x="663" y="22" width="14" height="14" rx="3" ry="3" fill="#ebedf0"><title>2026-03-23: 0 solves</title></rect>
<rect x="663" y="39" width="14" height="14" rx="3" ry="3" fill="#ebedf0"><title>2026-03-24: 0 solves</title></rect>
<rect x="663" y="56" width="14" height="14" rx="3" ry="3" fill="#ebedf0"><title>2026-03-25: 0 solves</title></rect>
<rect x="663" y="73" width="14" height="14" rx="3" ry="3" fill="#ebedf0"><title>2026-03-26: 0 solves</title></rect>
<rect x="663" y="90" width="14" height="14" rx="3" ry="3" fill="#ebedf0"><title>2026-03-27: 0 solves</title></rect>
<rect x="663" y="107" width="14" height="14" rx="3" ry="3" fill="#ebedf0"><title>2026-03-28: 0 solves</title></rect>
<rect x="663" y="124" width="14" height="14" rx="3" ry="3" fill="#ebedf0"><title>2026-03-29: 0 solves</title></rect>
</g>
<g class="wk" style="animation-delay:0.456s">
<rect x="680" y="22" width="14" height="14" rx="3" ry="3" fill="#ebedf0"><title>2026-03-30: 0 solves</title></rect>
<rect x="680" y="39" width="14" height="14" rx="3" ry="3" fill="#ebedf0"><title>2026-03-31: 0 solves</title></rect>
<rect x="680" y="56" width="14" height="14" rx="3" ry="3" fill="#ebedf0"><title>2026-04-01: 0 solves</title></rect>
<rect x="680" y="73" width="14" height="14" rx="3" ry="3" fill="#ebedf0"><title>2026-04-02: 0 solves</title></rect>
<rect x="680" y="90" width="14" height="14" rx="3" ry="3" fill="#ebedf0"><title>2026-04-03: 0 solves</title></rect>
<rect x="680" y="107" width="14" height="14" rx="3" ry="3" fill="#ebedf0"><title>2026-04-04: 0 solves</title></rect>
<rect x="680" y="124" width="14" height="14" rx="3" ry="3" fill="#ebedf0"><title>2026-04-05: 0 solves</title></rect>
</g>
<g class="wk" style="animation-delay:0.468s">
<rect x="697" y="22" width="14" height="14" rx="3" ry="3" fill="#ebedf0"><title>2026-04-06: 0 solves</title></rect>
<rect x="697" y="39" width="14" height="14" rx="3" ry="3" fill="#ebedf0"><title>2026-04-07: 0 solves</title></rect>
<rect x="697" y="56" width="14" height="14" rx="3" ry="3" fill="#ebedf0"><title>2026-04-08: 0 solves</title></rect>
<rect x="697" y="73" width="14" height="14" rx="3" ry="3" fill="#ebedf0"><title>2026-04-09: 0 solves</title></rect>
<rect x="697" y="90" width="14" height="14" rx="3" ry="3" fill="#ebedf0"><title>2026-04-10: 0 solves</title></rect>
<rect x="697" y="107" width="14" height="14" rx="3" ry="3" fill="#ebedf0"><title>2026-04-11: 0 solves</title></rect>
<rect x="697" y="124" width="14" height="14" rx="3" ry="3" fill="#ebedf0"><title>2026-04-12: 0 solves</title></rect>
</g>
<g class="wk" style="animation-delay:0.480s">
<rect x="714" y="22" width="14" height="14" rx="3" ry="3" fill="#ebedf0"><title>2026-04-13: 0 solves</title></rect>
<rect x="714" y="39" width="14" height="14" rx="3" ry="3" fill="#ebedf0"><title>2026-04-14: 0 solves</title></rect>
<rect x="714" y="56" width="14" height="14" rx="3" ry="3" fill="#ebedf0"><title>2026-04-15: 0 solves</title></rect>
<rect x="714" y="73" width="14" height="14" rx="3" ry="3" fill="#ebedf0"><title>2026-04-16: 0 solves</title></rect>
<rect x="714" y="90" width="14" height="14" rx="3" ry="3" fill="#ebedf0"><title>2026-04-17: 0 solves</title></rect>
<rect x="714" y="107" width="14" height="14" rx="3" ry="3" fill="#ebedf0"><title>2026-04-18: 0 solves</title></rect>
<rect x="714" y="124" width="14" height="14" rx="3" ry="3" fill="#ebedf0"><title>2026-04-19: 0 solves</title></rect>
</g>
<g class="wk" style="animation-delay:0.492s">
<rect x="731" y="22" width="14" height="14" rx="3" ry="3" fill="#ebedf0"><title>2026-04-20: 0 solves</title></rect>
<rect x="731" y="39" width="14" height="14" rx="3" ry="3" fill="#ebedf0"><title>2026-04-21: 0 solves</title></rect>
<rect x="731" y="56" width="14" height="14" rx="3" ry="3" fill="#ebedf0"><title>2026-04-22: 0 solves</title></rect>
<rect x="731" y="73" width="14" height="14" rx="3" ry="3" fill="#ebedf0"><title>2026-04-23: 0 solves</title></rect>
<rect x="731" y="90" width="14" height="14" rx="3" ry="3" fill="#ebedf0"><title>2026-04-24: 0 solves</title></rect>
<rect x="731" y="107" width="14" height="14" rx="3" ry="3" fill="#ebedf0"><title>2026-04-25: 0 solves</title></rect>
<rect x="731" y="124" width="14" height="14" rx="3" ry="3" fill="#ebedf0"><title>2026-04-26: 0 solves</title></rect>
</g>
<g class="wk" style="animation-delay:0.504s">
<rect x="748" y="22" width="14" height="14" rx="3" ry="3" fill="#ebedf0"><title>2026-04-27: 0 solves</title></rect>
<rect x="748" y="39" width="14" height="14" rx="3" ry="3" fill="#ebedf0"><title>2026-04-28: 0 solves</title></rect>
<rect x="748" y="56" width="14" height="14" rx="3" ry="3" fill="#ebedf0"><title>2026-04-29: 0 solves</title></rect>
<rect x="748" y="73" width="14" height="14" rx="3" ry="3" fill="#ebedf0"><title>2026-04-30: 0 solves</title></rect>
<rect x="748" y="90" width="14" height="14" rx="3" ry="3" fill="#ebedf0"><title>2026-05-01: 0 solves</title></rect>
<rect x="748" y="107" width="14" height="14" rx="3" ry="3" fill="#ebedf0"><title>2026-05-02: 0 solves</title></rect>
<rect x="748" y="124" width="14" height="14" rx="3" ry="3" fill="#ebedf0"><title>2026-05-03: 0 solves</title></rect>
</g>
<g class="wk" style="animation-delay:0.516s">
<rect x="765" y="22" width="14" height="14" rx="3" ry="3" fill="#ebedf0"><title>2026-05-04: 0 solves</title></rect>
<rect x="765" y="39" width="14" height="14" rx="3" ry="3" fill="#ebedf0"><title>2026-05-05: 0 solves</title></rect>
<rect x="765" y="56" width="14" height="14" rx="3" ry="3" fill="#ebedf0"><title>2026-05-06: 0 solves</title></rect>
<rect x="765" y="73" width="14" height="14" rx="3" ry="3" fill="#ebedf0"><title>2026-05-07: 0 solves</title></rect>
<rect x="765" y="90" width="14" height="14" rx="3" ry="3" fill="#ebedf0"><title>2026-05-08: 0 solves</title></rect>
<rect x="765" y="107" width="14" height="14" rx="3" ry="3" fill="#ebedf0"><title>2026-05-09: 0 solves</title></rect>
<rect x="765" y="124" width="14" height="14" rx="3" ry="3" fill="#ebedf0"><title>2026-05-10: 0 solves</title></rect>
</g>
<g class="wk" style="animation-delay:0.528s">
<rect x="782" y="22" width="14" height="14" rx="3" ry="3" fill="#ebedf0"><title>2026-05-11: 0 solves</title></rect>
<rect x="782" y="39" width="14" height="14" rx="3" ry="3" fill="#ebedf0"><title>2026-05-12: 0 solves</title></rect>
<rect x="782" y="56" width="14" height="14" rx="3" ry="3" fill="#ebedf0"><title>2026-05-13: 0 solves</title></rect>
<rect x="782" y="73" width="14" height="14" rx="3" ry="3" fill="#ebedf0"><title>2026-05-14: 0 solves</title></rect>
<rect x="782" y="90" width="14" height="14" rx="3" ry="3" fill="#ebedf0"><title>2026-05-15: 0 solves</title></rect>
<rect x="782" y="107" width="14" height="14" rx="3" ry="3" fill="#ebedf0"><title>2026-05-16: 0 solves</title></rect>
<rect x="782" y="124" width="14" height="14" rx="3" ry="3" fill="#ebedf0"><title>2026-05-17: 0 solves</title></rect>
</g>
<g class="wk" style="animation-delay:0.540s">
<rect x="799" y="22" width="14" height="14" rx="3" ry="3" fill="#ebedf0"><title>2026-05-18: 0 solves</title></rect>
<rect x="799" y="39" width="14" height="14" rx="3" ry="3" fill="#ebedf0"><title>2026-05-19: 0 solves</title></rect>
<rect x="799" y="56" width="14" height="14" rx="3" ry="3" fill="#ebedf0"><title>2026-05-20: 0 solves</title></rect>
<rect x="799" y="73" width="14" height="14" rx="3" ry="3" fill="#ebedf0"><title>2026-05-21: 0 solves</title></rect>
<rect x="799" y="90" width="14" height="14" rx="3" ry="3" fill="#ebedf0"><title>2026-05-22: 0 solves</title></rect>
<rect x="799" y="107" width="14" height="14" rx="3" ry="3" fill="#ebedf0"><title>2026-05-23: 0 solves</title></rect>
<rect x="799" y="124" width="14" height="14" rx="3" ry="3" fill="#ebedf0"><title>2026-05-24: 0 solves</title></rect>
</g>
<g class="wk" style="animation-delay:0.552s">
<rect x="816" y="22" width="14" height="14" rx="3" ry="3" fill="#ebedf0"><title>2026-05-25: 0 solves</title></rect>
<rect x="816" y="39" width="14" height="14" rx="3" ry="3" fill="#ebedf0"><title>2026-05-26: 0 solves</title></rect>
<rect x="816" y="56" width="14" height="14" rx="3" ry="3" fill="#ebedf0"><title>2026-05-27: 0 solves</title></rect>
<rect x="816" y="73" width="14" height="14" rx="3" ry="3" fill="#ebedf0"><title>2026-05-28: 0 solves</title></rect>
<rect x="816" y="90" width="14" height="14" rx="3" ry="3" fill="#ebedf0"><title>2026-05-29: 0 solves</title></rect>
<rect x="816" y="107" width="14" height="14" rx="3" ry="3" fill="#ebedf0"><title>2026-05-30: 0 solves</title></rect>
<rect x="816" y="124" width="14" height="14" rx="3" ry="3" fill="#ebedf0"><title>2026-05-31: 0 solves</title></rect>
</g>
<g class="wk" style="animation-delay:0.564s">
<rect x="833" y="22" width="14" height="14" rx="3" ry="3" fill="#ebedf0"><title>2026-06-01: 0 solves</title></rect>
<rect x="833" y="39" width="14" height="14" rx="3" ry="3" fill="#ebedf0"><title>2026-06-02: 0 solves</title></rect>
<rect x="833" y="56" width="14" height="14" rx="3" ry="3" fill="#ebedf0"><title>2026-06-03: 0 solves</title></rect>
<rect x="833" y="73" width="14" height="14" rx="3" ry="3" fill="#ebedf0"><title>2026-06-04: 0 solves</title></rect>
<rect x="833" y="90" width="14" height="14" rx="3" ry="3" fill="#ebedf0"><title>2026-06-05: 0 solves</title></rect>
<rect x="833" y="107" width="14" height="14" rx="3" ry="3" fill="#ebedf0"><title>2026-06-06: 0 solves</title></rect>
<rect x="833" y="124" width="14" height="14" rx="3" ry="3" fill="#ebedf0"><title>2026-06-07: 0 solves</title></rect>
</g>
<g class="wk" style="animation-delay:0.576s">
<rect x="850" y="22" width="14" height="14" rx="3" ry="3" fill="#ebedf0"><title>2026-06-08: 0 solves</title></rect>
<rect x="850" y="39" width="14" height="14" rx="3" ry="3" fill="#ebedf0"><title>2026-06-09: 0 solves</title></rect>
<rect x="850" y="56" width="14" height="14" rx="3" ry="3" fill="#ebedf0"><title>2026-06-10: 0 solves</title></rect>
<rect x="850" y="73" width="14" height="14" rx="3" ry="3" fill="#ebedf0"><title>2026-06-11: 0 solves</title></rect>
<rect x="850" y="90" width="14" height="14" rx="3" ry="3" fill="#ebedf0"><title>2026-06-12: 0 solves</title></rect>
<rect x="850" y="107" width="14" height="14" rx="3" ry="3" fill="#ebedf0"><title>2026-06-13: 0 solves</title></rect>
<rect x="850" y="124" width="14" height="14" rx="3" ry="3" fill="#ebedf0"><title>2026-06-14: 0 solves</title></rect>
</g>
<g class="wk" style="animation-delay:0.588s">
<rect x="867" y="22" width="14" height="14" rx="3" ry="3" fill="#ebedf0"><title>2026-06-15: 0 solves</title></rect>
<rect x="867" y="39" width="14" height="14" rx="3" ry="3" fill="#216e39"><title>2026-06-16: 10 solves</title></rect>
<rect x="867" y="56" width="14" height="14" rx="3" ry="3" fill="#ebedf0"><title>2026-06-17: 0 solves</title></rect>
<rect x="867" y="73" width="14" height="14" rx="3" ry="3" fill="#ebedf0"><title>2026-06-18: 0 solves</title></rect>
<rect x="867" y="90" width="14" height="14" rx="3" ry="3" fill="#40c463"><title>2026-06-19: 2 solves</title></rect>
<rect x="867" y="107" width="14" height="14" rx="3" ry="3" fill="#216e39"><title>2026-06-20: 5 solves</title></rect>
<rect x="867" y="124" width="14" height="14" rx="3" ry="3" fill="#ebedf0"><title>2026-06-21: 0 solves</title></rect>
</g>
<g class="wk" style="animation-delay:0.600s">
<rect x="884" y="22" width="14" height="14" rx="3" ry="3" fill="#ebedf0"><title>2026-06-22: 0 solves</title></rect>
<rect x="884" y="39" width="14" height="14" rx="3" ry="3" fill="#40c463"><title>2026-06-23: 2 solves</title></rect>
<rect x="884" y="56" width="14" height="14" rx="3" ry="3" fill="#ebedf0"><title>2026-06-24: 0 solves</title></rect>
<rect x="884" y="73" width="14" height="14" rx="3" ry="3" fill="#216e39"><title>2026-06-25: 10 solves</title></rect>
<rect x="884" y="90" width="14" height="14" rx="3" ry="3" fill="#40c463"><title>2026-06-26: 2 solves</title></rect>
<rect x="884" y="107" width="14" height="14" rx="3" ry="3" fill="#9be9a8"><title>2026-06-27: 1 solve</title></rect>
<rect x="884" y="124" width="14" height="14" rx="3" ry="3" fill="#40c463"><title>2026-06-28: 2 solves</title></rect>
</g>
<g class="wk" style="animation-delay:0.612s">
<rect x="901" y="22" width="14" height="14" rx="3" ry="3" fill="#40c463"><title>2026-06-29: 2 solves</title></rect>
<rect x="901" y="39" width="14" height="14" rx="3" ry="3" fill="#9be9a8"><title>2026-06-30: 1 solve</title></rect>
<rect x="901" y="56" width="14" height="14" rx="3" ry="3" fill="#9be9a8"><title>2026-07-01: 1 solve</title></rect>
<rect x="901" y="73" width="14" height="14" rx="3" ry="3" fill="#9be9a8"><title>2026-07-02: 1 solve</title></rect>
<rect x="901" y="90" width="14" height="14" rx="3" ry="3" fill="#216e39"><title>2026-07-03: 6 solves</title></rect>
<rect x="901" y="107" width="14" height="14" rx="3" ry="3" fill="#216e39"><title>2026-07-04: 4 solves</title></rect>
<rect x="901" y="124" width="14" height="14" rx="3" ry="3" fill="#ebedf0"><title>2026-07-05: 0 solves</title></rect>
</g>
<g class="wk" style="animation-delay:0.624s">
<rect x="918" y="22" width="14" height="14" rx="3" ry="3" fill="#ebedf0"><title>2026-07-06: 0 solves</title></rect>
<rect x="918" y="39" width="14" height="14" rx="3" ry="3" fill="#30a14e"><title>2026-07-07: 3 solves</title></rect>
<rect x="918" y="56" width="14" height="14" rx="3" ry="3" fill="#9be9a8"><title>2026-07-08: 1 solve</title></rect>
<rect id="today" x="918" y="73" width="14" height="14" rx="3" ry="3" fill="#ebedf0"><title>2026-07-09: 0 solves</title></rect>
</g>
<text x="34" y="157" fill="#768390">Less</text>
<rect x="62" y="146" width="14" height="14" rx="3" ry="3" fill="#ebedf0"/>
<rect x="79" y="146" width="14" height="14" rx="3" ry="3" fill="#9be9a8"/>
<rect x="96" y="146" width="14" height="14" rx="3" ry="3" fill="#40c463"/>
<rect x="113" y="146" width="14" height="14" rx="3" ry="3" fill="#30a14e"/>
<rect x="130" y="146" width="14" height="14" rx="3" ry="3" fill="#216e39"/>
<text x="149" y="157" fill="#768390">More</text>
</svg>
