<svg xmlns="http://www.w3.org/2000/svg" width="560" height="540" viewBox="0 0 560 540" font-family="-apple-system,Segoe UI,Helvetica,Arial,sans-serif">
<circle cx="74" cy="62" r="46" fill="none" stroke="#ebedf0" stroke-width="12" />
<g transform="rotate(-90 74 62)">
<circle cx="74" cy="62" r="46" fill="none" stroke="#1F6FEB" stroke-width="12" stroke-dasharray="86.71 289.03" stroke-dashoffset="-0.00" />
</g>
<text x="74" y="64" text-anchor="middle" font-size="20" font-weight="700" fill="#1F6FEB">30%</text>
<text x="140" y="56" font-size="26" font-weight="700" fill="#1F6FEB">45 / 150</text>
<text x="140" y="78" font-size="12" fill="#768390">problems on the roadmap</text>
<text x="162" y="147" text-anchor="end" font-size="11" fill="#768390">Sliding Window ✓</text>
<rect x="176" y="137" width="326" height="12" rx="6" ry="6" fill="#ebedf0" />
<rect x="176" y="137" width="326.0" height="12" rx="6" ry="6" fill="#2DB55D" />
<text x="554" y="147" text-anchor="end" font-size="11" font-weight="600" fill="#768390">6/6</text>
<text x="162" y="169" text-anchor="end" font-size="11" fill="#768390">Stack ✓</text>
<rect x="176" y="159" width="326" height="12" rx="6" ry="6" fill="#ebedf0" />
<rect x="176" y="159" width="326.0" height="12" rx="6" ry="6" fill="#2DB55D" />
<text x="554" y="169" text-anchor="end" font-size="11" font-weight="600" fill="#768390">7/7</text>
<text x="162" y="191" text-anchor="end" font-size="11" fill="#768390">Two Pointers ✓</text>
<rect x="176" y="181" width="326" height="12" rx="6" ry="6" fill="#ebedf0" />
<rect x="176" y="181" width="326.0" height="12" rx="6" ry="6" fill="#2DB55D" />
<text x="554" y="191" text-anchor="end" font-size="11" font-weight="600" fill="#768390">5/5</text>
<text x="162" y="213" text-anchor="end" font-size="11" fill="#768390">Arrays &amp; Hashing</text>
<rect x="176" y="203" width="326" height="12" rx="6" ry="6" fill="#ebedf0" />
<rect x="176" y="203" width="289.8" height="12" rx="6" ry="6" fill="#1F6FEB" />
<text x="554" y="213" text-anchor="end" font-size="11" font-weight="600" fill="#768390">8/9</text>
<text x="162" y="235" text-anchor="end" font-size="11" fill="#768390">Binary Search</text>
<rect x="176" y="225" width="326" height="12" rx="6" ry="6" fill="#ebedf0" />
<rect x="176" y="225" width="232.9" height="12" rx="6" ry="6" fill="#1F6FEB" />
<text x="554" y="235" text-anchor="end" font-size="11" font-weight="600" fill="#768390">5/7</text>
<text x="162" y="257" text-anchor="end" font-size="11" fill="#768390">Linked List</text>
<rect x="176" y="247" width="326" height="12" rx="6" ry="6" fill="#ebedf0" />
<rect x="176" y="247" width="207.5" height="12" rx="6" ry="6" fill="#1F6FEB" />
<text x="554" y="257" text-anchor="end" font-size="11" font-weight="600" fill="#768390">7/11</text>
<text x="162" y="279" text-anchor="end" font-size="11" fill="#768390">Heap / Priority Queue</text>
<rect x="176" y="269" width="326" height="12" rx="6" ry="6" fill="#ebedf0" />
<rect x="176" y="269" width="186.3" height="12" rx="6" ry="6" fill="#1F6FEB" />
<text x="554" y="279" text-anchor="end" font-size="11" font-weight="600" fill="#768390">4/7</text>
<text x="162" y="301" text-anchor="end" font-size="11" fill="#768390">Math &amp; Geometry</text>
<rect x="176" y="291" width="326" height="12" rx="6" ry="6" fill="#ebedf0" />
<rect x="176" y="291" width="81.5" height="12" rx="6" ry="6" fill="#1F6FEB" />
<text x="554" y="301" text-anchor="end" font-size="11" font-weight="600" fill="#768390">2/8</text>
<text x="162" y="323" text-anchor="end" font-size="11" fill="#768390">Bit Manipulation</text>
<rect x="176" y="313" width="326" height="12" rx="6" ry="6" fill="#ebedf0" />
<rect x="176" y="313" width="46.6" height="12" rx="6" ry="6" fill="#1F6FEB" />
<text x="554" y="323" text-anchor="end" font-size="11" font-weight="600" fill="#768390">1/7</text>
<text x="162" y="345" text-anchor="end" font-size="11" fill="#768390">1-D Dynamic Programming</text>
<rect x="176" y="335" width="326" height="12" rx="6" ry="6" fill="#ebedf0" />
<text x="554" y="345" text-anchor="end" font-size="11" font-weight="600" fill="#768390">0/12</text>
<text x="162" y="367" text-anchor="end" font-size="11" fill="#768390">2-D Dynamic Programming</text>
<rect x="176" y="357" width="326" height="12" rx="6" ry="6" fill="#ebedf0" />
<text x="554" y="367" text-anchor="end" font-size="11" font-weight="600" fill="#768390">0/11</text>
<text x="162" y="389" text-anchor="end" font-size="11" fill="#768390">Advanced Graphs</text>
<rect x="176" y="379" width="326" height="12" rx="6" ry="6" fill="#ebedf0" />
<text x="554" y="389" text-anchor="end" font-size="11" font-weight="600" fill="#768390">0/6</text>
<text x="162" y="411" text-anchor="end" font-size="11" fill="#768390">Backtracking</text>
<rect x="176" y="401" width="326" height="12" rx="6" ry="6" fill="#ebedf0" />
<text x="554" y="411" text-anchor="end" font-size="11" font-weight="600" fill="#768390">0/9</text>
<text x="162" y="433" text-anchor="end" font-size="11" fill="#768390">Graphs</text>
<rect x="176" y="423" width="326" height="12" rx="6" ry="6" fill="#ebedf0" />
<text x="554" y="433" text-anchor="end" font-size="11" font-weight="600" fill="#768390">0/13</text>
<text x="162" y="455" text-anchor="end" font-size="11" fill="#768390">Greedy</text>
<rect x="176" y="445" width="326" height="12" rx="6" ry="6" fill="#ebedf0" />
<text x="554" y="455" text-anchor="end" font-size="11" font-weight="600" fill="#768390">0/8</text>
<text x="162" y="477" text-anchor="end" font-size="11" fill="#768390">Intervals</text>
<rect x="176" y="467" width="326" height="12" rx="6" ry="6" fill="#ebedf0" />
<text x="554" y="477" text-anchor="end" font-size="11" font-weight="600" fill="#768390">0/6</text>
<text x="162" y="499" text-anchor="end" font-size="11" fill="#768390">Trees</text>
<rect x="176" y="489" width="326" height="12" rx="6" ry="6" fill="#ebedf0" />
<text x="554" y="499" text-anchor="end" font-size="11" font-weight="600" fill="#768390">0/15</text>
<text x="162" y="521" text-anchor="end" font-size="11" fill="#768390">Tries</text>
<rect x="176" y="511" width="326" height="12" rx="6" ry="6" fill="#ebedf0" />
<text x="554" y="521" text-anchor="end" font-size="11" font-weight="600" fill="#768390">0/3</text>
</svg>
