<svg xmlns="http://www.w3.org/2000/svg" width="880" height="540" viewBox="0 0 880 540" font-family="-apple-system,Segoe UI,Helvetica,Arial,sans-serif">
<circle cx="74" cy="62" r="46" fill="none" stroke="#ebedf0" stroke-width="12" />
<g transform="rotate(-90 74 62)">
<circle cx="74" cy="62" r="46" fill="none" stroke="#1F6FEB" stroke-width="12" stroke-dasharray="88.63 289.03" stroke-dashoffset="-0.00"><animate attributeName="stroke-dasharray" values="0 289.03;0 289.03;88.63 289.03" keyTimes="0;0.000;1" dur="0.900s" fill="freeze"/></circle>
</g>
<g><animateTransform attributeName="transform" type="rotate" from="0 74 62" to="360 74 62" dur="4.0s" repeatCount="indefinite"/><circle cx="74" cy="62" r="46" fill="none" stroke="#cfe3ff" stroke-width="12" stroke-linecap="round" stroke-dasharray="4 289.03" transform="rotate(-90 74 62)"/></g>
<g><animate attributeName="opacity" values="0;0;1" keyTimes="0;0.333;1" dur="0.900s" fill="freeze"/>
<text x="74" y="64" text-anchor="middle" font-size="20" font-weight="700" fill="#1F6FEB">31%</text>
<text x="140" y="56" font-size="26" font-weight="700" fill="#1F6FEB">46 / 150</text>
<text x="140" y="78" font-size="12" fill="#768390">problems on the roadmap</text>
</g>
<text x="174" y="147" text-anchor="end" font-size="11" fill="#768390">Sliding Window ✓</text>
<rect x="188" y="137" width="630" height="12" rx="6" ry="6" fill="#ebedf0" />
<rect x="188" y="137" width="630.0" height="12" rx="6" ry="6" fill="#2DB55D"><animate attributeName="width" values="0;0;630.0" keyTimes="0;0.294;1" dur="0.850s" fill="freeze"/></rect>
<text x="874" y="147" text-anchor="end" font-size="11" font-weight="600" fill="#768390"><animate attributeName="opacity" values="0;0;1" keyTimes="0;0.455;1" dur="1.100s" fill="freeze"/>6/6</text>
<text x="174" y="169" text-anchor="end" font-size="11" fill="#768390">Stack ✓</text>
<rect x="188" y="159" width="630" height="12" rx="6" ry="6" fill="#ebedf0" />
<rect x="188" y="159" width="630.0" height="12" rx="6" ry="6" fill="#2DB55D"><animate attributeName="width" values="0;0;630.0" keyTimes="0;0.318;1" dur="0.880s" fill="freeze"/></rect>
<text x="874" y="169" text-anchor="end" font-size="11" font-weight="600" fill="#768390"><animate attributeName="opacity" values="0;0;1" keyTimes="0;0.455;1" dur="1.100s" fill="freeze"/>7/7</text>
<text x="174" y="191" text-anchor="end" font-size="11" fill="#768390">Two Pointers ✓</text>
<rect x="188" y="181" width="630" height="12" rx="6" ry="6" fill="#ebedf0" />
<rect x="188" y="181" width="630.0" height="12" rx="6" ry="6" fill="#2DB55D"><animate attributeName="width" values="0;0;630.0" keyTimes="0;0.341;1" dur="0.910s" fill="freeze"/></rect>
<text x="874" y="191" text-anchor="end" font-size="11" font-weight="600" fill="#768390"><animate attributeName="opacity" values="0;0;1" keyTimes="0;0.455;1" dur="1.100s" fill="freeze"/>5/5</text>
<text x="174" y="213" text-anchor="end" font-size="11" fill="#768390">Arrays &amp; Hashing</text>
<rect x="188" y="203" width="630" height="12" rx="6" ry="6" fill="#ebedf0" />
<rect x="188" y="203" width="560.0" height="12" rx="6" ry="6" fill="#1F6FEB"><animate attributeName="width" values="0;0;560.0" keyTimes="0;0.362;1" dur="0.940s" fill="freeze"/></rect>
<text x="874" y="213" text-anchor="end" font-size="11" font-weight="600" fill="#768390"><animate attributeName="opacity" values="0;0;1" keyTimes="0;0.455;1" dur="1.100s" fill="freeze"/>8/9</text>
<text x="174" y="235" text-anchor="end" font-size="11" fill="#768390">Binary Search</text>
<rect x="188" y="225" width="630" height="12" rx="6" ry="6" fill="#ebedf0" />
<rect x="188" y="225" width="450.0" height="12" rx="6" ry="6" fill="#1F6FEB"><animate attributeName="width" values="0;0;450.0" keyTimes="0;0.381;1" dur="0.970s" fill="freeze"/></rect>
<text x="874" y="235" text-anchor="end" font-size="11" font-weight="600" fill="#768390"><animate attributeName="opacity" values="0;0;1" keyTimes="0;0.455;1" dur="1.100s" fill="freeze"/>5/7</text>
<text x="174" y="257" text-anchor="end" font-size="11" fill="#768390">Linked List</text>
<rect x="188" y="247" width="630" height="12" rx="6" ry="6" fill="#ebedf0" />
<rect x="188" y="247" width="400.9" height="12" rx="6" ry="6" fill="#1F6FEB"><animate attributeName="width" values="0;0;400.9" keyTimes="0;0.400;1" dur="1.000s" fill="freeze"/></rect>
<text x="874" y="257" text-anchor="end" font-size="11" font-weight="600" fill="#768390"><animate attributeName="opacity" values="0;0;1" keyTimes="0;0.455;1" dur="1.100s" fill="freeze"/>7/11</text>
<text x="174" y="279" text-anchor="end" font-size="11" fill="#768390">Heap / Priority Queue</text>
<rect x="188" y="269" width="630" height="12" rx="6" ry="6" fill="#ebedf0" />
<rect x="188" y="269" width="360.0" height="12" rx="6" ry="6" fill="#1F6FEB"><animate attributeName="width" values="0;0;360.0" keyTimes="0;0.417;1" dur="1.030s" fill="freeze"/></rect>
<text x="874" y="279" text-anchor="end" font-size="11" font-weight="600" fill="#768390"><animate attributeName="opacity" values="0;0;1" keyTimes="0;0.455;1" dur="1.100s" fill="freeze"/>4/7</text>
<text x="174" y="301" text-anchor="end" font-size="11" fill="#768390">Math &amp; Geometry</text>
<rect x="188" y="291" width="630" height="12" rx="6" ry="6" fill="#ebedf0" />
<rect x="188" y="291" width="157.5" height="12" rx="6" ry="6" fill="#1F6FEB"><animate attributeName="width" values="0;0;157.5" keyTimes="0;0.434;1" dur="1.060s" fill="freeze"/></rect>
<text x="874" y="301" text-anchor="end" font-size="11" font-weight="600" fill="#768390"><animate attributeName="opacity" values="0;0;1" keyTimes="0;0.455;1" dur="1.100s" fill="freeze"/>2/8</text>
<text x="174" y="323" text-anchor="end" font-size="11" fill="#768390">Bit Manipulation</text>
<rect x="188" y="313" width="630" height="12" rx="6" ry="6" fill="#ebedf0" />
<rect x="188" y="313" width="90.0" height="12" rx="6" ry="6" fill="#1F6FEB"><animate attributeName="width" values="0;0;90.0" keyTimes="0;0.450;1" dur="1.090s" fill="freeze"/></rect>
<text x="874" y="323" text-anchor="end" font-size="11" font-weight="600" fill="#768390"><animate attributeName="opacity" values="0;0;1" keyTimes="0;0.455;1" dur="1.100s" fill="freeze"/>1/7</text>
<text x="174" y="345" text-anchor="end" font-size="11" fill="#768390">Trees</text>
<rect x="188" y="335" width="630" height="12" rx="6" ry="6" fill="#ebedf0" />
<rect x="188" y="335" width="42.0" height="12" rx="6" ry="6" fill="#1F6FEB"><animate attributeName="width" values="0;0;42.0" keyTimes="0;0.464;1" dur="1.120s" fill="freeze"/></rect>
<text x="874" y="345" text-anchor="end" font-size="11" font-weight="600" fill="#768390"><animate attributeName="opacity" values="0;0;1" keyTimes="0;0.455;1" dur="1.100s" fill="freeze"/>1/15</text>
<text x="174" y="367" text-anchor="end" font-size="11" fill="#768390">1-D Dynamic Programming</text>
<rect x="188" y="357" width="630" height="12" rx="6" ry="6" fill="#ebedf0" />
<text x="874" y="367" text-anchor="end" font-size="11" font-weight="600" fill="#768390"><animate attributeName="opacity" values="0;0;1" keyTimes="0;0.455;1" dur="1.100s" fill="freeze"/>0/12</text>
<text x="174" y="389" text-anchor="end" font-size="11" fill="#768390">2-D Dynamic Programming</text>
<rect x="188" y="379" width="630" height="12" rx="6" ry="6" fill="#ebedf0" />
<text x="874" y="389" text-anchor="end" font-size="11" font-weight="600" fill="#768390"><animate attributeName="opacity" values="0;0;1" keyTimes="0;0.455;1" dur="1.100s" fill="freeze"/>0/11</text>
<text x="174" y="411" text-anchor="end" font-size="11" fill="#768390">Advanced Graphs</text>
<rect x="188" y="401" width="630" height="12" rx="6" ry="6" fill="#ebedf0" />
<text x="874" y="411" text-anchor="end" font-size="11" font-weight="600" fill="#768390"><animate attributeName="opacity" values="0;0;1" keyTimes="0;0.455;1" dur="1.100s" fill="freeze"/>0/6</text>
<text x="174" y="433" text-anchor="end" font-size="11" fill="#768390">Backtracking</text>
<rect x="188" y="423" width="630" height="12" rx="6" ry="6" fill="#ebedf0" />
<text x="874" y="433" text-anchor="end" font-size="11" font-weight="600" fill="#768390"><animate attributeName="opacity" values="0;0;1" keyTimes="0;0.455;1" dur="1.100s" fill="freeze"/>0/9</text>
<text x="174" y="455" text-anchor="end" font-size="11" fill="#768390">Graphs</text>
<rect x="188" y="445" width="630" height="12" rx="6" ry="6" fill="#ebedf0" />
<text x="874" y="455" text-anchor="end" font-size="11" font-weight="600" fill="#768390"><animate attributeName="opacity" values="0;0;1" keyTimes="0;0.455;1" dur="1.100s" fill="freeze"/>0/13</text>
<text x="174" y="477" text-anchor="end" font-size="11" fill="#768390">Greedy</text>
<rect x="188" y="467" width="630" height="12" rx="6" ry="6" fill="#ebedf0" />
<text x="874" y="477" text-anchor="end" font-size="11" font-weight="600" fill="#768390"><animate attributeName="opacity" values="0;0;1" keyTimes="0;0.455;1" dur="1.100s" fill="freeze"/>0/8</text>
<text x="174" y="499" text-anchor="end" font-size="11" fill="#768390">Intervals</text>
<rect x="188" y="489" width="630" height="12" rx="6" ry="6" fill="#ebedf0" />
<text x="874" y="499" text-anchor="end" font-size="11" font-weight="600" fill="#768390"><animate attributeName="opacity" values="0;0;1" keyTimes="0;0.455;1" dur="1.100s" fill="freeze"/>0/6</text>
<text x="174" y="521" text-anchor="end" font-size="11" fill="#768390">Tries</text>
<rect x="188" y="511" width="630" height="12" rx="6" ry="6" fill="#ebedf0" />
<text x="874" y="521" text-anchor="end" font-size="11" font-weight="600" fill="#768390"><animate attributeName="opacity" values="0;0;1" keyTimes="0;0.455;1" dur="1.100s" fill="freeze"/>0/3</text>
</svg>
