<svg xmlns="http://www.w3.org/2000/svg" width="880" height="376" viewBox="0 0 880 376" font-family="-apple-system,Segoe UI,Helvetica,Arial,sans-serif" font-size="11">
<text x="174" y="27" text-anchor="end" fill="#768390">Array</text>
<rect x="188" y="17" width="644" height="12" rx="6" ry="6" fill="#ebedf0" />
<rect x="188" y="17" width="644.0" height="12" rx="6" ry="6" fill="#0d47a1"><animate attributeName="width" values="0;0;644.0" keyTimes="0;0.000;1" dur="0.600s" fill="freeze"/></rect>
<text x="838" y="27" fill="#768390" font-weight="600"><animate attributeName="opacity" values="0;0;1" keyTimes="0;0.400;1" dur="1.000s" fill="freeze"/>33</text>
<text x="174" y="49" text-anchor="end" fill="#768390">Hash Table</text>
<rect x="188" y="39" width="644" height="12" rx="6" ry="6" fill="#ebedf0" />
<rect x="188" y="39" width="292.7" height="12" rx="6" ry="6" fill="#5c8cd2"><animate attributeName="width" values="0;0;292.7" keyTimes="0;0.062;1" dur="0.640s" fill="freeze"/></rect>
<text x="487" y="49" fill="#768390" font-weight="600"><animate attributeName="opacity" values="0;0;1" keyTimes="0;0.400;1" dur="1.000s" fill="freeze"/>15</text>
<text x="174" y="71" text-anchor="end" fill="#768390">Two Pointers</text>
<rect x="188" y="61" width="644" height="12" rx="6" ry="6" fill="#ebedf0" />
<rect x="188" y="61" width="214.7" height="12" rx="6" ry="6" fill="#6e9bdd"><animate attributeName="width" values="0;0;214.7" keyTimes="0;0.118;1" dur="0.680s" fill="freeze"/></rect>
<text x="409" y="71" fill="#768390" font-weight="600"><animate attributeName="opacity" values="0;0;1" keyTimes="0;0.400;1" dur="1.000s" fill="freeze"/>11</text>
<text x="174" y="93" text-anchor="end" fill="#768390">Sorting</text>
<rect x="188" y="83" width="644" height="12" rx="6" ry="6" fill="#ebedf0" />
<rect x="188" y="83" width="195.2" height="12" rx="6" ry="6" fill="#729fe0"><animate attributeName="width" values="0;0;195.2" keyTimes="0;0.167;1" dur="0.720s" fill="freeze"/></rect>
<text x="389" y="93" fill="#768390" font-weight="600"><animate attributeName="opacity" values="0;0;1" keyTimes="0;0.400;1" dur="1.000s" fill="freeze"/>10</text>
<text x="174" y="115" text-anchor="end" fill="#768390">String</text>
<rect x="188" y="105" width="644" height="12" rx="6" ry="6" fill="#ebedf0" />
<rect x="188" y="105" width="195.2" height="12" rx="6" ry="6" fill="#729fe0"><animate attributeName="width" values="0;0;195.2" keyTimes="0;0.211;1" dur="0.760s" fill="freeze"/></rect>
<text x="389" y="115" fill="#768390" font-weight="600"><animate attributeName="opacity" values="0;0;1" keyTimes="0;0.400;1" dur="1.000s" fill="freeze"/>10</text>
<text x="174" y="137" text-anchor="end" fill="#768390">Binary Search</text>
<rect x="188" y="127" width="644" height="12" rx="6" ry="6" fill="#ebedf0" />
<rect x="188" y="127" width="156.1" height="12" rx="6" ry="6" fill="#7ba6e5"><animate attributeName="width" values="0;0;156.1" keyTimes="0;0.250;1" dur="0.800s" fill="freeze"/></rect>
<text x="350" y="137" fill="#768390" font-weight="600"><animate attributeName="opacity" values="0;0;1" keyTimes="0;0.400;1" dur="1.000s" fill="freeze"/>8</text>
<text x="174" y="159" text-anchor="end" fill="#768390">Math</text>
<rect x="188" y="149" width="644" height="12" rx="6" ry="6" fill="#ebedf0" />
<rect x="188" y="149" width="156.1" height="12" rx="6" ry="6" fill="#7ba6e5"><animate attributeName="width" values="0;0;156.1" keyTimes="0;0.286;1" dur="0.840s" fill="freeze"/></rect>
<text x="350" y="159" fill="#768390" font-weight="600"><animate attributeName="opacity" values="0;0;1" keyTimes="0;0.400;1" dur="1.000s" fill="freeze"/>8</text>
<text x="174" y="181" text-anchor="end" fill="#768390">Stack</text>
<rect x="188" y="171" width="644" height="12" rx="6" ry="6" fill="#ebedf0" />
<rect x="188" y="171" width="156.1" height="12" rx="6" ry="6" fill="#7ba6e5"><animate attributeName="width" values="0;0;156.1" keyTimes="0;0.318;1" dur="0.880s" fill="freeze"/></rect>
<text x="350" y="181" fill="#768390" font-weight="600"><animate attributeName="opacity" values="0;0;1" keyTimes="0;0.400;1" dur="1.000s" fill="freeze"/>8</text>
<text x="174" y="203" text-anchor="end" fill="#768390">Heap (Priority Queue)</text>
<rect x="188" y="193" width="644" height="12" rx="6" ry="6" fill="#ebedf0" />
<rect x="188" y="193" width="117.1" height="12" rx="6" ry="6" fill="#84aeeb"><animate attributeName="width" values="0;0;117.1" keyTimes="0;0.348;1" dur="0.920s" fill="freeze"/></rect>
<text x="311" y="203" fill="#768390" font-weight="600"><animate attributeName="opacity" values="0;0;1" keyTimes="0;0.400;1" dur="1.000s" fill="freeze"/>6</text>
<text x="174" y="225" text-anchor="end" fill="#768390">Linked List</text>
<rect x="188" y="215" width="644" height="12" rx="6" ry="6" fill="#ebedf0" />
<rect x="188" y="215" width="117.1" height="12" rx="6" ry="6" fill="#84aeeb"><animate attributeName="width" values="0;0;117.1" keyTimes="0;0.375;1" dur="0.960s" fill="freeze"/></rect>
<text x="311" y="225" fill="#768390" font-weight="600"><animate attributeName="opacity" values="0;0;1" keyTimes="0;0.400;1" dur="1.000s" fill="freeze"/>6</text>
<text x="174" y="247" text-anchor="end" fill="#768390">Sliding Window</text>
<rect x="188" y="237" width="644" height="12" rx="6" ry="6" fill="#ebedf0" />
<rect x="188" y="237" width="97.6" height="12" rx="6" ry="6" fill="#88b2ed"><animate attributeName="width" values="0;0;97.6" keyTimes="0;0.400;1" dur="1.000s" fill="freeze"/></rect>
<text x="292" y="247" fill="#768390" font-weight="600"><animate attributeName="opacity" values="0;0;1" keyTimes="0;0.400;1" dur="1.000s" fill="freeze"/>5</text>
<text x="174" y="269" text-anchor="end" fill="#768390">Divide and Conquer</text>
<rect x="188" y="259" width="644" height="12" rx="6" ry="6" fill="#ebedf0" />
<rect x="188" y="259" width="78.1" height="12" rx="6" ry="6" fill="#8cb6f0"><animate attributeName="width" values="0;0;78.1" keyTimes="0;0.423;1" dur="1.040s" fill="freeze"/></rect>
<text x="272" y="269" fill="#768390" font-weight="600"><animate attributeName="opacity" values="0;0;1" keyTimes="0;0.400;1" dur="1.000s" fill="freeze"/>4</text>
<text x="174" y="291" text-anchor="end" fill="#768390">Monotonic Stack</text>
<rect x="188" y="281" width="644" height="12" rx="6" ry="6" fill="#ebedf0" />
<rect x="188" y="281" width="78.1" height="12" rx="6" ry="6" fill="#8cb6f0"><animate attributeName="width" values="0;0;78.1" keyTimes="0;0.444;1" dur="1.080s" fill="freeze"/></rect>
<text x="272" y="291" fill="#768390" font-weight="600"><animate attributeName="opacity" values="0;0;1" keyTimes="0;0.400;1" dur="1.000s" fill="freeze"/>4</text>
<text x="174" y="313" text-anchor="end" fill="#768390">Recursion</text>
<rect x="188" y="303" width="644" height="12" rx="6" ry="6" fill="#ebedf0" />
<rect x="188" y="303" width="78.1" height="12" rx="6" ry="6" fill="#8cb6f0"><animate attributeName="width" values="0;0;78.1" keyTimes="0;0.464;1" dur="1.120s" fill="freeze"/></rect>
<text x="272" y="313" fill="#768390" font-weight="600"><animate attributeName="opacity" values="0;0;1" keyTimes="0;0.400;1" dur="1.000s" fill="freeze"/>4</text>
<text x="174" y="335" text-anchor="end" fill="#768390">Design</text>
<rect x="188" y="325" width="644" height="12" rx="6" ry="6" fill="#ebedf0" />
<rect x="188" y="325" width="58.5" height="12" rx="6" ry="6" fill="#91baf3"><animate attributeName="width" values="0;0;58.5" keyTimes="0;0.483;1" dur="1.160s" fill="freeze"/></rect>
<text x="253" y="335" fill="#768390" font-weight="600"><animate attributeName="opacity" values="0;0;1" keyTimes="0;0.400;1" dur="1.000s" fill="freeze"/>3</text>
<text x="174" y="357" text-anchor="end" fill="#768390">Dynamic Programming</text>
<rect x="188" y="347" width="644" height="12" rx="6" ry="6" fill="#ebedf0" />
<rect x="188" y="347" width="58.5" height="12" rx="6" ry="6" fill="#91baf3"><animate attributeName="width" values="0;0;58.5" keyTimes="0;0.500;1" dur="1.200s" fill="freeze"/></rect>
<text x="253" y="357" fill="#768390" font-weight="600"><animate attributeName="opacity" values="0;0;1" keyTimes="0;0.400;1" dur="1.000s" fill="freeze"/>3</text>
<defs><linearGradient id="tshine" x1="0" y1="0" x2="1" y2="0"><stop offset="0" stop-color="#ffffff" stop-opacity="0"/><stop offset="0.5" stop-color="#ffffff" stop-opacity="0.55"/><stop offset="1" stop-color="#ffffff" stop-opacity="0"/></linearGradient><clipPath id="tbar"><rect x="188" y="17" width="644.0" height="12" rx="6" ry="6"/></clipPath></defs>
<g clip-path="url(#tbar)"><rect x="144" y="17" width="44" height="12" fill="url(#tshine)"><animateTransform attributeName="transform" type="translate" values="0 0;688 0" dur="3.2s" repeatCount="indefinite"/></rect></g>
</svg>
