<svg xmlns="http://www.w3.org/2000/svg" width="880" height="376" viewBox="0 0 880 376" font-family="-apple-system,Segoe UI,Helvetica,Arial,sans-serif" font-size="11">
<text x="174" y="27" text-anchor="end" fill="#768390">Array</text>
<rect x="188" y="17" width="644" height="12" rx="6" ry="6" fill="#ebedf0" />
<rect x="188" y="17" width="644.0" height="12" rx="6" ry="6" fill="#0d47a1" />
<text x="838" y="27" fill="#768390" font-weight="600">33</text>
<text x="174" y="49" text-anchor="end" fill="#768390">Hash Table</text>
<rect x="188" y="39" width="644" height="12" rx="6" ry="6" fill="#ebedf0" />
<rect x="188" y="39" width="292.7" height="12" rx="6" ry="6" fill="#5c8cd2" />
<text x="487" y="49" fill="#768390" font-weight="600">15</text>
<text x="174" y="71" text-anchor="end" fill="#768390">Two Pointers</text>
<rect x="188" y="61" width="644" height="12" rx="6" ry="6" fill="#ebedf0" />
<rect x="188" y="61" width="214.7" height="12" rx="6" ry="6" fill="#6e9bdd" />
<text x="409" y="71" fill="#768390" font-weight="600">11</text>
<text x="174" y="93" text-anchor="end" fill="#768390">Sorting</text>
<rect x="188" y="83" width="644" height="12" rx="6" ry="6" fill="#ebedf0" />
<rect x="188" y="83" width="195.2" height="12" rx="6" ry="6" fill="#729fe0" />
<text x="389" y="93" fill="#768390" font-weight="600">10</text>
<text x="174" y="115" text-anchor="end" fill="#768390">String</text>
<rect x="188" y="105" width="644" height="12" rx="6" ry="6" fill="#ebedf0" />
<rect x="188" y="105" width="195.2" height="12" rx="6" ry="6" fill="#729fe0" />
<text x="389" y="115" fill="#768390" font-weight="600">10</text>
<text x="174" y="137" text-anchor="end" fill="#768390">Binary Search</text>
<rect x="188" y="127" width="644" height="12" rx="6" ry="6" fill="#ebedf0" />
<rect x="188" y="127" width="156.1" height="12" rx="6" ry="6" fill="#7ba6e5" />
<text x="350" y="137" fill="#768390" font-weight="600">8</text>
<text x="174" y="159" text-anchor="end" fill="#768390">Math</text>
<rect x="188" y="149" width="644" height="12" rx="6" ry="6" fill="#ebedf0" />
<rect x="188" y="149" width="156.1" height="12" rx="6" ry="6" fill="#7ba6e5" />
<text x="350" y="159" fill="#768390" font-weight="600">8</text>
<text x="174" y="181" text-anchor="end" fill="#768390">Stack</text>
<rect x="188" y="171" width="644" height="12" rx="6" ry="6" fill="#ebedf0" />
<rect x="188" y="171" width="156.1" height="12" rx="6" ry="6" fill="#7ba6e5" />
<text x="350" y="181" fill="#768390" font-weight="600">8</text>
<text x="174" y="203" text-anchor="end" fill="#768390">Heap (Priority Queue)</text>
<rect x="188" y="193" width="644" height="12" rx="6" ry="6" fill="#ebedf0" />
<rect x="188" y="193" width="117.1" height="12" rx="6" ry="6" fill="#84aeeb" />
<text x="311" y="203" fill="#768390" font-weight="600">6</text>
<text x="174" y="225" text-anchor="end" fill="#768390">Linked List</text>
<rect x="188" y="215" width="644" height="12" rx="6" ry="6" fill="#ebedf0" />
<rect x="188" y="215" width="117.1" height="12" rx="6" ry="6" fill="#84aeeb" />
<text x="311" y="225" fill="#768390" font-weight="600">6</text>
<text x="174" y="247" text-anchor="end" fill="#768390">Sliding Window</text>
<rect x="188" y="237" width="644" height="12" rx="6" ry="6" fill="#ebedf0" />
<rect x="188" y="237" width="97.6" height="12" rx="6" ry="6" fill="#88b2ed" />
<text x="292" y="247" fill="#768390" font-weight="600">5</text>
<text x="174" y="269" text-anchor="end" fill="#768390">Divide and Conquer</text>
<rect x="188" y="259" width="644" height="12" rx="6" ry="6" fill="#ebedf0" />
<rect x="188" y="259" width="78.1" height="12" rx="6" ry="6" fill="#8cb6f0" />
<text x="272" y="269" fill="#768390" font-weight="600">4</text>
<text x="174" y="291" text-anchor="end" fill="#768390">Monotonic Stack</text>
<rect x="188" y="281" width="644" height="12" rx="6" ry="6" fill="#ebedf0" />
<rect x="188" y="281" width="78.1" height="12" rx="6" ry="6" fill="#8cb6f0" />
<text x="272" y="291" fill="#768390" font-weight="600">4</text>
<text x="174" y="313" text-anchor="end" fill="#768390">Recursion</text>
<rect x="188" y="303" width="644" height="12" rx="6" ry="6" fill="#ebedf0" />
<rect x="188" y="303" width="78.1" height="12" rx="6" ry="6" fill="#8cb6f0" />
<text x="272" y="313" fill="#768390" font-weight="600">4</text>
<text x="174" y="335" text-anchor="end" fill="#768390">Design</text>
<rect x="188" y="325" width="644" height="12" rx="6" ry="6" fill="#ebedf0" />
<rect x="188" y="325" width="58.5" height="12" rx="6" ry="6" fill="#91baf3" />
<text x="253" y="335" fill="#768390" font-weight="600">3</text>
<text x="174" y="357" text-anchor="end" fill="#768390">Dynamic Programming</text>
<rect x="188" y="347" width="644" height="12" rx="6" ry="6" fill="#ebedf0" />
<rect x="188" y="347" width="58.5" height="12" rx="6" ry="6" fill="#91baf3" />
<text x="253" y="357" fill="#768390" font-weight="600">3</text>
</svg>
